<svg xmlns="http://www.w3.org/2000/svg" version="1.1" xmlns:xlink="http://www.w3.org/1999/xlink" width="1500" height="1500" viewBox="0 0 1500 1500"><rect width="1500" height="1500" x="0" y="0" id="background" stroke="transparent" fill="#f4f2f2"></rect><svg xml:space="preserve" width="1000" height="1000" data-version="2" data-id="lg_4JaJEA0P4USGUtGrd8" viewBox="0 0 655 608" x="250" y="250"><rect width="100%" height="100%" fill="transparent"></rect><path fill="#4962bf" d="M373.89 470.323q-80.69 0-124.18-45.06-43.5-45.06-43.5-129.43 0-56.07 21.23-95.89 21.22-39.82 60.52-61.31 39.3-21.48 94.32-21.48 19.91 0 42.97 3.14 23.05 3.15 47.16 8.91l-9.44 35.63q-22-6.81-44.01-10.48-22.01-3.67-44.02-3.67-25.67 0-50.83 5.51-25.15 5.5-49.25 16.5l17.29-12.57q-20.44 29.86-30.65 63.92-10.22 34.06-10.22 73.36 0 68.12 33.27 104.54 33.28 36.42 94.06 36.42 17.82 0 38.51-3.67 20.7-3.67 43.76-11.53l11.53 33.54q-55.02 13.62-98.52 13.62m52.4-13.1 29.87-103.22h16.25v102.7Zm29.87-225.32-29.34-102.7h45.59v102.7Z" paint-order="stroke"></path><rect width="266.2" height="353.17" x="-133.1" y="-176.59" fill="none" rx="0" ry="0" transform="translate(339.81 294.24)"></rect><g fill="#4962bf" stroke="#f4f2f2" stroke-width="3.75" paint-order="stroke"><path d="M614.928 532.739q2.057-.601 4.085-1.052c2.312-.465 4.61-.93 7.013-.45 1.892.375 3.574 1.156 5.226 2.117q1.547.886 2.989 1.953c.6.465.976 1.096 1.397 1.682.555.766.21 1.501-.346 2.072a6.308 6.308 0 0 1-5.391 1.967c-2.974-.3-5.962-.45-8.906-1.05-1.322-.271-2.388-1.082-3.544-1.698a16.52 16.52 0 0 0-3.785-1.336c-.51-.136-.961-.106-1.351.315-.256.27-.616.39-.947.556a3.004 3.004 0 0 0-1.546 3.724q.315.871.345 1.787l.405 10.107.27 7.33c.06 2.958.046 5.931.121 8.89.075 3.124.15 6.247.375 9.371q.27 3.514.286 7.058c0 2.478.165 4.956.24 7.434q.105 3.545.165 7.059c0 .555.03 1.156-.646 1.366-.6.196-1.08-.06-1.441-.525q-.256-.346-.706-.346c-1.457-.135-2.133-.886-1.862-2.372.766-4.205.33-8.44.39-12.66.06-4.146-.27-8.306-.24-12.45q.03-3.41 0-6.789l-.105-9.551c-.03-2.643.03-5.271-.03-7.915-.06-2.658-.21-5.316-.316-7.974-.03-.66-.18-1.217-.766-1.667-.66-.526-1.036-1.337-1.667-1.922-1.246-1.172-2.853-1.532-4.385-2.013a34.541 34.541 0 0 1-9.491-4.535c-1.772-1.232-3.65-2.358-5.121-3.995-.541-.6-.992-1.262-.676-2.043.345-.87 1.171-1.216 2.057-1.336.826-.105 1.652.015 2.463.225 3.154.811 6.173 1.952 8.906 3.725a18.022 18.022 0 0 1 5.481 5.21c.541.827 1.127 1.683 2.058 2.178.18.106.36.3.586.196.285-.135.18-.436.165-.661l-.376-6.338c-.3-5.992-1.156-11.954-1.561-17.931-.106-1.682-.391-3.35-.496-5.031a6.608 6.608 0 0 0-1.111-2.989 91.61 91.61 0 0 0-4.16-6.052c-2.058-2.748-4.175-5.452-6.068-8.305-1.892-2.853-4.115-5.467-6.337-8.095a40.549 40.549 0 0 1-3.44-4.76c-.96-1.517-2.147-2.899-3.288-4.296-1.412-1.742-2.508-3.694-3.875-5.481-1.397-1.817-2.838-3.604-4.16-5.467-1.322-1.862-2.898-3.544-4.115-5.496-.84-1.352-1.937-2.568-2.943-3.815a25.53 25.53 0 0 1-3.2-5.136c-1.11-2.403-2.793-4.445-4.19-6.668-1.816-2.913-4.505-5.016-6.682-7.57-2.223-2.597-5.136-4.19-7.975-5.946-1.562-.961-3.049-2.043-4.625-2.989-.962-.585-2.028-.991-3.004-1.547-1.457-.826-2.628-2.087-4.28-2.643-3.094-1.036-6.082-2.358-9.446-2.463-3.11-.105-5.963-1.291-8.816-2.448-1.712-.69-3.5-1.081-5.286-1.486-2.478-.571-4.851-1.442-7.284-2.178a85.603 85.603 0 0 0-8.92-2.178 42.05 42.05 0 0 1-7.6-2.433 145.675 145.675 0 0 1-8.2-3.469c-2.327-1.096-4.52-2.448-6.818-3.559a33.04 33.04 0 0 0-7.209-2.658q-1.036-.256-1.997-.676c-.72-.285-.961-.961-1.006-1.637-.045-.676.48-.976 1.051-1.231 1.202-.556 2.478-.36 3.71-.376q6.908-.075 13.831.436 4.355.33 8.696.585c3.183.18 6.337.556 9.506.751 4.7.3 9.401.42 14.072 1.066 2.973.421 5.827 1.337 8.71 2.223 1.802.556 3.5 1.292 5.242 1.937 2.913 1.082 5.496 2.809 8.14 4.37 2.402 1.427 4.46 3.275 6.637 5.017-.736-1.292-1.712-2.388-2.673-3.514-2.193-2.599-4.91-4.656-7.194-7.15-.645-.705-1.561-1.155-2.342-1.741-1.517-1.142-2.854-2.493-4.37-3.635-.751-.57-1.577-.96-2.373-1.366-2.118-1.081-3.935-2.553-5.782-4.025-1.502-1.201-3.184-2.163-4.896-3.049a19.523 19.523 0 0 1-6.743-5.526 40.549 40.549 0 0 0-6.879-6.473 31.538 31.538 0 0 1-3.514-3.5c-2.388-2.672-5.046-5.06-7.689-7.478-2.463-2.238-4.79-4.626-7.209-6.923a81.097 81.097 0 0 0-5.992-5.137c-3.92-3.048-7.944-5.992-11.293-9.686-2.133-2.343-4.175-4.76-6.338-7.074-.66-.706-1.307-1.456-2.012-2.117-.346-.33-.646-.781-.406-1.202a1.277 1.277 0 0 1 1.412-.66q3.814.81 7.494 2.132 2.508.871 5.03 1.667c5.062 1.637 10.153 3.154 14.929 5.527 3.003 1.502 5.962 3.138 8.635 5.166 3.334 2.508 6.788 4.896 9.792 7.84a73.588 73.588 0 0 1 7.103 7.899 124.65 124.65 0 0 0 7.179 8.695c1.382 1.517 2.553 3.199 3.83 4.806 2.568 3.259 4.986 6.638 8.05 9.491a36.043 36.043 0 0 1 6.307 7.494 165.198 165.198 0 0 1 5.09 9.011c1.398 2.673 2.314 5.602 4.116 8.08.24.33.42.736.93.93-.044-.75-.525-1.246-.69-1.846-.766-2.929-1.982-5.707-2.988-8.56-.706-2.013-1.082-4.13-1.893-6.113-1.081-2.628-1.832-5.376-2.853-8.004-1.502-3.875-2.298-7.93-3.35-11.91-.6-2.252-1.366-4.445-1.726-6.758a37.545 37.545 0 0 1-.571-7.178c.045-1.472.03-2.929.225-4.386q.15-1.111.676-2.072c.496-.871 1.262-.961 1.892-.18.721.87 1.127 1.922 1.472 2.943 1.802 5.316 4.085 10.468 5.797 15.814q1.802 5.557 4.025 10.933a75.09 75.09 0 0 1 3.995 12.856q.946 4.1 2.117 8.154c1.172 4.055 2.043 8.2 2.839 12.345q.6 3.049 1.02 6.112.196 1.652.166 3.304c0 .736.165 1.367.526 2.013 1.246 2.268 2.403 4.595 3.724 6.833.676 1.141 1.622 2.148 2.493 3.169.466.54.781 1.171 1.111 1.787 1.202 2.328 3.02 4.22 4.446 6.383 1.276 1.922 2.373 3.98 3.89 5.736 1.02 1.187 2.057 2.358 2.838 3.725 1.186 2.102 2.238 4.28 3.68 6.232q1.396 1.878 2.883 3.68a36.043 36.043 0 0 1 3.259 4.88c1.321 2.253 2.973 4.266 4.55 6.323.646.841 1.337 1.682 1.892 2.598 1.517 2.508 3.545 4.596 5.362 6.879a148.678 148.678 0 0 1 5.752 7.87c1.787 2.567 3.71 5.015 5.631 7.493l1.247 1.622c.21-.69 0-1.262-.06-1.787-.436-3.68-.976-7.359-1.367-11.038-.33-3.14-.766-6.263-1.096-9.402a243.292 243.292 0 0 0-1.021-8.02c-.09-.69-.48-1.2-.871-1.771-1.457-2.178-3.394-3.95-5.016-5.963-.781-.96-1.833-1.606-2.794-2.342q-1.081-.796-2.012-1.742a57.068 57.068 0 0 1-5.602-6.518 76.592 76.592 0 0 1-5.466-9.026c-1.472-2.853-2.809-5.782-4.235-8.665-.962-1.953-2.013-3.845-2.929-5.827-.676-1.442-1.201-2.944-1.757-4.43a40.549 40.549 0 0 1-1.862-6.879c-.166-.871-.36-1.727.135-2.598q.6-1.111 1.742-.811c2.102.556 4.205 1.141 6.232 1.922q2.719 1.006 5.122 2.628c1.802 1.232 3.319 2.794 4.775 4.386a40.549 40.549 0 0 1 6.398 9.686c.72 1.472 1.412 2.959 2.238 4.416l-1.082-6.023-1.907-10.497c-.646-3.545-1.201-7.119-1.997-10.633a1037.744 1037.744 0 0 1-2.629-11.834c-.976-4.46-1.892-8.92-2.913-13.366-.69-3.034-1.592-6.037-2.223-9.086-.375-1.832-.99-3.59-1.366-5.407-.406-1.922-2.043-2.988-3.29-4.31a37.545 37.545 0 0 1-3.664-4.34 18.022 18.022 0 0 0-6.007-5.016c-3.064-1.757-6.097-3.544-8.56-6.112q-.946-.946-1.667-2.058a6.007 6.007 0 0 0-2.538-2.373c-1.832-.9-3.62-1.862-5.482-2.703-3.138-1.397-6.412-2.358-9.686-3.349-2.163-.646-4.205-1.607-6.263-2.553-2.643-1.216-5.391-2.193-8.08-3.289a42.05 42.05 0 0 1-10.107-5.707 8.26 8.26 0 0 1-2.538-3.214c-.39-.87.496-2.042 1.667-2.147 1.532-.15 3.064.015 4.58.24 4.401.661 8.501 2.298 12.691 3.68 2.208.72 4.415 1.471 6.503 2.523 1.306.645 2.568 1.396 3.844 2.102q2.493 1.367 4.926 2.824l1.893 1.186-1.217-2.343a49.56 49.56 0 0 0-6.082-9.251 112.635 112.635 0 0 1-5.317-6.923 142.671 142.671 0 0 0-6.698-8.59l-2.177-2.704c-.646-.78-1.382-1.532-2.043-2.328a93.112 93.112 0 0 0-9.16-9.671 81.097 81.097 0 0 1-7.945-8.005c-2.058-2.418-4.04-4.91-6.383-7.088-1.532-1.427-3.244-2.613-4.82-3.965-1.232-1.051-2.539-2.027-3.77-3.094-1.352-1.171-2.944-2.027-4.49-2.943-1.352-.796-2.914-.916-4.205-1.772-.36-.24-.676-.541-1.037-.751-.555-.316-.976-.721-.78-1.397.225-.75.855-1.051 1.576-1.021q1.607.09 3.154.6a27.032 27.032 0 0 1 7.269 3.815c2.328 1.652 5.076 2.538 7.554 3.92 2.688 1.517 5.632 2.553 8.275 4.145a93.112 93.112 0 0 1 8.89 5.962 90.108 90.108 0 0 1 8.936 8.17c1.472 1.486 2.748 3.169 4.07 4.805a100.62 100.62 0 0 0 5.016 5.737 64.577 64.577 0 0 1 4.535 5.617l2.358 3.274c1.457 1.937 3.109 3.71 4.265 5.857a54.065 54.065 0 0 1 2.433 5.346q.661 1.712 1.487 3.35c.931 1.742 1.397 3.649 2.073 5.496.645 1.742 1.546 3.41 2.117 5.166.856 2.643 1.502 5.362 2.238 8.035.075.3.105.6.36.916.54-.931.36-1.922.36-2.853.046-4.236-.06-8.456-.555-12.676a76.592 76.592 0 0 0-1.607-9.761 25.53 25.53 0 0 0-3.049-6.954 216.26 216.26 0 0 1-4.61-7.884c-1.142-2.088-2.283-4.28-3.905-6.052-2.087-2.268-3.199-5.016-4.385-7.75a3.004 3.004 0 0 1-.15-1.637c.09-.72.976-1.08 1.742-.72a18.773 18.773 0 0 1 7.148 5.857 96.115 96.115 0 0 1 5.527 8.29c.946 1.606 1.922 3.198 2.673 4.91.6 1.367 1.127 2.764 1.802 4.115 1.022 2.058 1.833 4.205 2.268 6.473.45 2.403 1.202 4.76 1.171 7.224a127.653 127.653 0 0 1-.675 13.726c-.196 1.983-.45 3.95-.946 5.887-.286 1.127-.601 2.268-.691 3.41-.12 1.501.57 2.657 1.862 3.544 2.313 1.576 4.79 2.838 7.164 4.325 1.787 1.126 3.364 2.493 4.595 4.28 1.171 1.712 2.538 3.304 3.83 4.926.06.09.195.12.36.225.165-1.066-.45-1.877-.66-2.778-.842-3.635-1.848-7.239-2.659-10.888-1.021-4.596-1.787-9.251-2.868-13.832q-1.232-5.406-2.809-10.723c-1.441-4.806-2.703-9.671-4.07-14.507-.976-3.47-2.192-6.893-2.973-10.408-.646-2.883-1.577-5.691-2.208-8.575a57.068 57.068 0 0 0-3.124-9.687 108.13 108.13 0 0 1-3.634-10.467 64.577 64.577 0 0 0-3.094-8.065 213.256 213.256 0 0 0-5.24-10.467c-2.088-4.01-4.371-7.93-5.978-12.195a24.029 24.029 0 0 0-5.422-8.005 16.52 16.52 0 0 1-3.814-6.803q-1.021-3.754-1.967-7.539c-1.007-4.04-1.953-8.08-2.99-12.104-.825-3.214-1.981-6.353-2.507-9.657a75.09 75.09 0 0 1-1.051-9.176c-.12-3.454-.36-6.908-.166-10.377.166-2.884.06-5.797.586-8.666.09-.465.15-1.066.6-1.126.436-.06.481.586.587.931.54 1.937 1.201 3.845 1.697 5.782.36 1.382.99 2.688 1.456 4.04a73.588 73.588 0 0 1 2.689 9.026q1.171 5.662 2.748 11.233c.54 1.877 1.472 3.635 2.162 5.467a63.076 63.076 0 0 1 2.809 9.491c.465 2.328 1.231 4.61 1.276 7.014.03 1.366-.225 2.778-.09 4.1.24 2.357-.06 4.73.42 7.043.166.826.15 1.652.166 2.478.03 2.328 1.442 4.115 2.208 6.157 1.066 2.869 2.943 5.272 4.415 7.9l2.147 3.95c.33-.24.24-.541.24-.797-.044-2.973.436-5.902.887-8.83.525-3.5.9-6.968-.105-10.453-.48-1.682-1.187-3.274-1.667-4.956a24.029 24.029 0 0 1-.946-5.781 93.112 93.112 0 0 0-1.277-11.504c-.33-1.968-.375-3.95-.45-5.947q-.136-4.205.705-8.305c.586-2.824 1.127-5.647 2.178-8.335a18.022 18.022 0 0 1 2.913-4.746 67.581 67.581 0 0 1 5.377-5.992c.21-.21.375-.54.75-.406.376.135.466.466.496.811.36 3.725 1.052 7.39 1.757 11.054.36 1.862.992 3.649 1.292 5.526.6 3.65 1.216 7.299 1.487 10.993.15 2.073.48 4.13.525 6.218.06 2.568-.54 5.016-1.261 7.479-.901 3.063-2.433 5.872-3.319 8.935-.916 3.11-2.373 6.023-3.71 8.966q-.33.751-.57 1.547c-.255.811-.751 1.322-1.622 1.412-.36.03-.406.27-.45.57-.481 3.304-1.202 6.563-1.743 9.852-.315 1.968-.646 4.025-.045 6.007.406 1.337 1.021 2.599 1.532 3.905q2.268 5.857 4.626 11.7c1.02 2.522 1.907 5.09 2.928 7.613.48 1.187 1.051 2.358 1.472 3.56 1.231 3.484 2.463 6.968 3.364 10.572q1.171 4.52 2.598 8.996c1.186 3.83 2.583 7.6 3.44 11.534.134.616.42 1.201.69 1.952.57-1.577.646-3.124.976-4.595.766-3.47 1.592-6.924 1.817-10.498a14.567 14.567 0 0 0-2.072-8.95c-1.427-2.313-3.139-4.461-4.13-7.03a57.068 57.068 0 0 1-2.643-9.325c-.226-1.217-.256-2.433-.376-3.635-.165-1.622-.375-3.274-.255-4.91.24-3.29.36-6.593 1.517-9.747a30.036 30.036 0 0 1 3.574-6.458c1.066-1.577 1.997-3.244 3.109-4.76 1.276-1.758 2.132-3.74 3.259-5.753.255.871-.226 1.412-.496 1.878-1.397 2.282-2.508 4.73-4.07 6.923-1.366 1.922-2.448 4.025-3.65 6.037-1.08 1.787-1.29 3.83-1.666 5.797a37.545 37.545 0 0 0-.18 12.165c.48 3.469 1.096 6.953 2.583 10.197a39.047 39.047 0 0 0 3.349 5.782l2.733 4.025q.12.195.18.42c.09.286.06.751.39.736.406-.015.526-.48.586-.84.811-4.521 1.893-8.997 2.328-13.577.255-2.703.18-5.452.24-8.17.03-1.337.106-2.688.015-4.025q-.21-3.199-.24-6.397c0-1.277.105-2.569.075-3.845q-.09-5.046-.24-10.077c-.075-2.343-.15-4.7.06-7.044.075-.78-.18-1.576 0-2.372.03-.136 0-.316-.165-.39-.36-.151-.376.315-.646.36l.961-3.8c.075-.27.03-.72.48-.646.391.06.331.466.316.766-.045 2.073-.18 4.145-.15 6.218q.03 4.31.285 8.62c.196 3.109.256 6.217.376 9.326.12 3.034.03 6.067.345 9.086q.631 5.962.21 11.91a63.076 63.076 0 0 1-1.441 10.527c-.226.886-.24 1.817-.376 2.823.676-.615.976-1.381 1.412-2.042.901-1.382 1.877-2.718 2.718-4.145a43.552 43.552 0 0 0 5.227-13.847c.99-4.94 1.261-9.897 1.066-14.913-.09-2.132-.03-4.28-.135-6.412a105.126 105.126 0 0 1-.06-7.524c.045-1.983-.196-3.965.33-5.917.165-.586.42-.992 1.036-1.157.586-.165.931.15 1.367.51 1.291 1.082 1.697 2.599 2.162 4.07.826 2.689 1.682 5.377 2.208 8.14.466 2.433.766 4.896 1.036 7.36.24 2.207.466 4.43 1.082 6.592.6 2.118.66 4.31.39 6.473-.18 1.427-.15 2.898-.6 4.28a18.022 18.022 0 0 1-3.785 7.013q-1.712 1.848-3.38 3.725c-2.492 2.808-5.48 5.046-8.44 7.329q-2.162 1.637-3.709 3.874c-.375.556-.75 1.142-1.457 1.352-.435.12-.435.466-.42.811.18 3.694-.72 7.224-1.652 10.738-.78 2.928-1.637 5.827-2.403 8.77-.24.916.18 1.802.42 2.689q.481 1.907.992 3.8l.916 3.078q1.111 3.89 2.132 7.78c.766 3.048 1.412 6.141 2.193 9.19.841 3.304 1.907 6.563 2.643 9.897.631 2.898 1.577 5.722 2.148 8.62.586 3.004 1.532 5.917 2.207 8.906.706 3.064 1.562 6.082 2.253 9.161.661 3.004 1.412 5.992 2.103 8.996.856 3.694 1.381 7.464 2.312 11.128.166.66.421.676.841.406 1.247-.796 2.448-1.667 2.884-3.2l.165-.33c1.592-2.027 1.066-4.175.255-6.262-1.501-3.875-3.424-7.57-5.076-11.384a55.567 55.567 0 0 1-2.778-7.479c-.526-1.877-1.141-3.74-1.517-5.647-.736-3.694-1.231-7.448-.345-11.203a10.513 10.513 0 0 1 3.409-5.662 126.151 126.151 0 0 1 6.878-5.466 16.52 16.52 0 0 1 6.218-3.23c.675-.15.99.106 1.096.737a3.004 3.004 0 0 1 0 1.366 45.054 45.054 0 0 1-3.875 10.032q-1.997 3.665-4.055 7.3a18.022 18.022 0 0 0-2.448 9.205c.015 1.802.496 3.544.826 5.317.376 2.072.886 4.13 1.277 6.202.3 1.517 1.096 2.838 1.562 4.295.495 1.562 1.051 3.109 1.517 4.7.405-1.636.465-3.303.495-4.955.045-2.118.256-4.22.51-6.308.166-1.396.076-2.808.151-4.205q.135-2.658.526-5.301c.555-3.89 1.937-7.57 3.078-11.309q1.157-3.664 1.923-7.464c.93-4.805 1.562-9.671 3.123-14.342a54.065 54.065 0 0 1 3.575-8.35 84.1 84.1 0 0 1 3.078-5.421q1.502-2.298 3.154-4.49a54.065 54.065 0 0 1 5.151-6.098 52.563 52.563 0 0 1 7.765-6.157 147.176 147.176 0 0 0 11.999-8.921q2.118-1.772 3.995-3.8.555-.675 1.051-1.381.54-.751 1.262-.196c.435.346.63.826.225 1.277-1.877 2.133-2.298 4.91-3.304 7.419q-1.352 3.454-2.613 6.968c-.736 2.043-1.337 4.13-2.163 6.143-1.532 3.74-2.688 7.599-4.46 11.248-1.187 2.448-2.028 5.046-3.019 7.584a297.356 297.356 0 0 1-7.178 16.7q-2.358 5.136-4.641 10.303c-1.171 2.628-2.178 5.346-3.694 7.809-1.908 3.094-3.394 6.428-5.422 9.446-.856 1.277-1.517 2.658-2.358 3.95-1.682 2.598-3.484 5.121-5.12 7.734a61.574 61.574 0 0 1-4.236 6.098c-1.096 1.351-1.817 2.973-2.853 4.385a16.52 16.52 0 0 1-4.761 4.625c-.105.06-.21.18-.315.18-1.337.046-1.082.796-.886 1.698.63 2.763 1.276 5.541 1.727 8.35.39 2.478 1.066 4.895 1.501 7.358.541 3.124 1.352 6.218 1.863 9.357.42 2.508.916 4.986 1.366 7.494.601 3.334 1.052 6.698 1.622 10.047.6 3.499 1.157 6.998 1.968 10.467.405 1.712 1.066 3.38 1.156 5.181q.03.18.21.496c.496-.66.346-1.382.376-1.997.24-5.407 1.336-10.693 2.523-15.95a100.62 100.62 0 0 1 4.61-15.078c.811-2.027 2.028-3.844 3.214-5.676 1.832-2.824 3.65-5.662 5.692-8.32a33.04 33.04 0 0 1 7.479-7.119c2.253-1.532 4.806-2.403 7.193-3.62.646-.33 1.217-.81 1.818-1.246.345-.24.705-.45 1.096-.18.42.285.69.66.57 1.247-.375 1.832-.795 3.649-1.08 5.496a37.545 37.545 0 0 1-.932 4.295c-.766 2.854-1.487 5.737-2.478 8.515q-1.757 4.941-3.754 9.777a67.581 67.581 0 0 1-5.947 11.79q-2.178 3.303-4.49 6.502c-2.073 2.839-4.1 5.737-6.398 8.41-1.127 1.337-2.013 2.839-3.184 4.145-.841.946-1.352 2.103-1.847 3.38.856-.15 1.486-.601 2.132-.917a76.592 76.592 0 0 1 11.429-4.7c2.973-.932 6.067-1.412 9.176-1.758q2.673-.3 5.361-.69a15.018 15.018 0 0 1 8.71 1.622c1.698.84 1.758 2.538.21 3.619-1.366.961-2.672 2.012-4.069 2.928a15.018 15.018 0 0 1-7.464 2.268c-3.634.27-7.299.315-10.903.766-2.283.285-4.445-.315-6.668-.345-3.034-.03-6.052-.12-8.876 1.276-.405.195-.495.51-.57.871a28.534 28.534 0 0 0-.51 6.293c.03 2.237-.211 4.475.104 6.698.3 2.147.54 4.31.916 6.442q.601 3.395.721 6.849l.21 5.421q.076.946.586 1.727c.27.42.316.811-.015 1.187s-.285.796-.24 1.216q.42 4.355.796 8.696c.315 3.604.886 7.178 1.081 10.782l.36 6.383c.016.285-.075.676.286.796.315.09.45-.255.66-.42 1.127-.902 1.442-2.268 1.923-3.5a55.567 55.567 0 0 1 3.079-6.758 36.043 36.043 0 0 1 8.38-10.002 48.058 48.058 0 0 1 11.849-7.223c2.748-1.202 5.391-2.644 8.065-3.995 1.486-.751 2.613-.18 2.613 1.502s-.466 3.319-.901 4.94c-1.097 4.01-3.89 6.684-7.149 8.906-4.13 2.809-8.245 5.632-12.705 7.9q-4.205 2.162-8.26 4.535c-.931.54-1.622 1.397-2.523 2.043Zm29.315-236.279c-.255-.045-.39.09-.51.226-1.803 1.817-3.95 3.228-5.978 4.775-3.379 2.568-6.953 4.896-10.302 7.524a51.061 51.061 0 0 0-9.402 9.987c-1.862 2.508-3.364 5.257-4.88 7.975a49.56 49.56 0 0 0-5.001 13.276c-1.007 4.265-1.427 8.635-2.448 12.9-.586 2.433-1.352 4.821-2.148 7.194-.706 2.087-1.427 4.175-1.877 6.322q-.796 3.83-.991 7.735c-.15 2.568-.436 5.136-.661 7.689-.18 1.982-.165 3.98-.48 5.947-.12.766-.136 1.562-.211 2.508a9.01 9.01 0 0 0 2.118-2.568c.856-1.337 1.682-2.703 2.628-3.98a81.097 81.097 0 0 0 4.145-6.172c1.832-3.034 3.86-5.947 5.481-9.116 1.172-2.283 2.613-4.445 3.725-6.758 1.547-3.199 2.868-6.488 4.325-9.732l4.836-10.603c1.171-2.598 2.493-5.136 3.424-7.824 1.396-4.055 3.229-7.93 4.79-11.91 1.157-2.958 2.494-5.826 3.545-8.83q1.276-3.574 2.658-7.103c.961-2.478 1.787-5.001 2.643-7.51.225-.645.646-1.246.586-1.982Zm-192.621 32.5c.21.285.285.45.405.57q2.148 2.193 4.16 4.505a81.097 81.097 0 0 0 13.276 12.285 85.603 85.603 0 0 1 6.879 5.632c2.357 2.132 4.565 4.415 6.923 6.518 3.109 2.763 6.217 5.511 9.086 8.515a39.047 39.047 0 0 0 5.331 4.896q2.448 1.772 4.43 4.115a19.523 19.523 0 0 0 6.909 5.661c1.502.691 2.973 1.457 4.28 2.493a42.05 42.05 0 0 0 6.322 4.356c.887.465 1.833.886 2.599 1.516 3.153 2.614 6.623 4.821 9.43 7.825 1.277 1.366 2.99 2.253 4.026 3.874.135.21.33.451.676.36.015-.06.075-.134.06-.164-1.082-2.223-1.968-4.536-3.274-6.638-1.472-2.343-2.689-4.851-4.235-7.149a42.05 42.05 0 0 0-5.857-6.893 54.065 54.065 0 0 1-5.152-5.707c-2.252-2.853-4.355-5.812-6.758-8.545-1.351-1.532-2.643-3.124-4.025-4.656-1.772-1.967-3.258-4.205-4.985-6.217a57.068 57.068 0 0 0-7.96-7.945c-2.343-1.847-4.64-3.754-7.149-5.406a76.592 76.592 0 0 0-9.566-5.542 55.567 55.567 0 0 0-8.14-3.033c-4.64-1.367-9.16-3.11-13.816-4.416-1.202-.33-2.373-.826-3.86-.856Zm97.827 98.037a33.04 33.04 0 0 0-3.169-6.037c-1.546-2.418-3.679-4.4-5.661-6.473q-2.268-2.403-4.58-4.746c-.797-.796-1.533-1.742-2.494-2.283-1.622-.93-2.928-2.282-4.61-3.108-1.337-.661-2.508-1.637-3.86-2.253a67.581 67.581 0 0 0-8.786-3.424 48.058 48.058 0 0 0-9.025-2.028c-2.779-.255-5.557-.63-8.365-.63-2.719 0-5.422-.36-8.14-.511-1.172-.06-2.313-.42-3.47-.39-2.057.075-4.084-.316-6.142-.36-2.387-.06-4.76-.301-7.133-.496-2.463-.196-4.941-.196-7.42-.286h-1.216c.736.526 1.487.841 2.223 1.202q3.875 1.922 7.704 3.874c1.742.886 3.56 1.637 5.362 2.403 3.274 1.382 6.563 2.688 10.017 3.59 3.139.825 6.397 1.216 9.446 2.342 3.139 1.157 6.353 1.983 9.597 2.734 1.697.39 3.349.976 4.97 1.591 1.517.586 2.99 1.247 4.611 1.442 3.214.39 6.458.676 9.506 1.922 1.713.706 3.59 1.037 5.092 2.283.796.661 1.652 1.292 2.583 1.742 3.364 1.637 6.382 3.845 9.596 5.722 1.157.676 2.238 1.442 3.38 2.163Zm86.113-20.815q-1.697.87-3.273 1.622c-3.23 1.502-6.083 3.514-8.47 6.172a82.599 82.599 0 0 0-8.336 11.504 43.552 43.552 0 0 0-4.79 10.873c-1.232 4.205-2.463 8.41-3.23 12.735-.405 2.283-1.156 4.52-1.35 6.833-.226 2.824-.647 5.632-.827 8.456-.03.51-.39.99-.12 1.652.736-1.082 1.231-2.208 2.057-3.124 2.208-2.433 4.04-5.151 6.143-7.66 2.748-3.288 5.121-6.863 7.569-10.362a52.563 52.563 0 0 0 4.445-7.284c1.622-3.349 2.974-6.848 4.355-10.302.977-2.463 1.833-4.986 2.734-7.494.39-1.096.87-2.177 1.096-3.304.39-1.982.931-3.92 1.322-5.902.285-1.427.66-2.853.705-4.43Zm-84.881-170.89c.225.045.27-.075.33-.18q1.307-2.658 2.553-5.377c.886-1.967 1.457-4.07 2.253-6.082 1.051-2.673 2.192-5.316 2.973-8.08.481-1.712.962-3.409.947-5.21q-.045-2.193-.21-4.401c-.196-2.899-.271-5.797-.631-8.68-.36-2.944-.977-5.843-1.517-8.771-.3-1.652-.751-3.289-1.021-4.941-.33-2.118-.556-4.235-.811-6.368-.03-.21 0-.465-.27-.525-.271-.06-.346.195-.481.36-.886 1.081-1.727 2.238-2.689 3.244a19.523 19.523 0 0 0-3.709 5.692 33.04 33.04 0 0 0-1.907 6.503 85.603 85.603 0 0 0-.992 6.442c-.3 2.373-.06 4.746.136 7.119.165 1.922.375 3.86.796 5.692.6 2.613.81 5.256 1.006 7.9.15 2.102.24 4.234.886 6.232 1.006 3.093 2.132 6.157 2.358 9.416Zm4.535 105.261c-.12-.75-.135-1.291-.3-1.757-1.157-3.064-1.742-6.307-3.109-9.311-1.051-2.328-1.502-4.911-2.643-7.224-1.051-2.102-1.922-4.295-2.869-6.457-.976-2.268-2.628-4.1-4.07-6.083-1.696-2.328-3.333-4.67-5.12-6.923-2.509-3.154-5.332-6.052-7.705-9.326-1.547-2.133-3.484-3.92-5.331-5.797-1.247-1.262-2.463-2.553-3.77-3.74-1.216-1.111-2.403-2.312-3.74-3.214q-2.312-1.546-4.685-3.048a64.577 64.577 0 0 0-6.908-3.935c-2.989-1.382-5.917-2.898-8.83-4.43-.226-.12-.436-.36-.737-.195-.045.315.18.465.36.6 1.908 1.322 3.65 2.854 5.512 4.25 1.923 1.442 3.515 3.214 5.047 5.031 2.162 2.553 4.235 5.197 6.668 7.494 2.778 2.614 5.661 5.122 8.26 7.945 3.153 3.409 6.007 7.073 9.13 10.512.947 1.037 1.742 2.223 2.644 3.29 1.411 1.666 2.568 3.499 3.874 5.21 1.457 1.923 2.824 3.92 4.385 5.768a52.563 52.563 0 0 1 5.152 6.968c2.072 3.454 3.724 7.164 5.947 10.513.826 1.246 1.622 2.553 2.853 3.844Zm43.688 121.796-.33-2.703a25.53 25.53 0 0 0-2.629-9.296q-.991-1.877-1.517-3.935a69.083 69.083 0 0 0-2.898-8.785 66.08 66.08 0 0 0-5.407-10.738 33.04 33.04 0 0 0-6.698-7.57c-2.463-2.057-5.526-3.003-8.41-4.234-.48-.21-1.111-.751-1.517-.406-.48.42.165 1.066.195 1.622l.03.18a42.05 42.05 0 0 0 2.884 8.89c.991 2.178 2.193 4.25 3.214 6.414 1.712 3.589 3.379 7.223 5.376 10.647a61.574 61.574 0 0 0 5.227 7.825 39.047 39.047 0 0 0 7.433 7.283 12.014 12.014 0 0 1 3.41 3.32c.345.555.81 1.156 1.637 1.486m-50.206-43.477c-.15-.78.015-1.517-.12-2.238l-1.261-6.367c-.39-1.878-.676-3.8-1.232-5.632-1.156-3.8-2.072-7.644-3.078-11.474-.977-3.694-1.547-7.494-2.974-11.053-.48-1.186-.751-2.478-1.307-3.62-1.667-3.454-2.478-7.208-3.8-10.782-.525-1.427-.945-2.899-1.456-4.34q-1.382-3.83-2.838-7.645c-.661-1.742-.886-3.619-1.742-5.286-.286-.556-.721-.976-1.292-.991-.586 0-.54.72-.81 1.096q-.031.075-.031.18a34.541 34.541 0 0 0 .075 11.309q.556 3.604 1.817 7.088c1.217 3.29 1.652 6.804 3.004 10.077 1.051 2.539 1.937 5.152 2.823 7.75.886 2.613 2.223 5.046 2.809 7.78q.345 1.47.93 2.868c1.097 2.688 2.058 5.421 3.08 8.14.675 1.801 1.23 3.664 2.282 5.286.766 1.171 1.607 2.297 2.358 3.484.916 1.457 2.073 2.778 2.793 4.385Zm-12.465-186.193c.256-.165.15-.39.136-.586q-.21-3.109-.045-6.247c.12-2.358.195-4.716.075-7.074-.21-3.965-1.487-7.734-2.373-11.564-.736-3.198-2.283-6.172-3.32-9.296-1.14-3.499-1.666-7.133-2.477-10.708a97.617 97.617 0 0 0-2.208-8.305c-1.111-3.499-2.463-6.908-3.214-10.512-.06-.27-.12-.6-.495-.54-.376.044-.21.39-.226.6 0 2.508-.06 5.016 0 7.509.106 3.484.12 6.968.496 10.422.3 2.749.45 5.527 1.036 8.26a88.606 88.606 0 0 0 1.652 6.563c.961 3.274 2.028 6.518 2.884 9.807.435 1.682.676 3.424 1.141 5.091.736 2.628 1.472 5.241 1.982 7.914a16.52 16.52 0 0 0 4.941 8.65Zm43.072 56.362c1.862-1.381 3.785-2.688 5.482-4.295 1.772-1.682 3.409-3.514 5.076-5.316a16.52 16.52 0 0 0 4.565-11.188q.195-3.53-.525-6.924-.721-3.379-1.022-6.803c-.15-1.787-.165-3.574-.585-5.331-.661-2.824-1.277-5.647-2.193-8.395-.45-1.367-.826-2.794-1.997-4.01-.42 1.562-.36 3.063-.33 4.475.06 3.785.104 7.584.285 11.369.21 4.61.24 9.22-.136 13.831-.225 2.719-.96 5.347-1.592 8.005-1.276 5.376-3.844 10.092-7.028 14.582m35.052 241.82c.6-.345 1.036-.54 1.427-.826 2.328-1.712 4.91-3.003 7.509-4.22a91.61 91.61 0 0 0 7.719-4.175c2.613-1.547 5.046-3.424 7.464-5.271 2.253-1.712 4.265-3.664 5.286-6.428.631-1.697.811-3.454 1.052-5.391l-1.427.69c-1.802.917-3.574 1.893-5.422 2.719-3.92 1.757-7.794 3.56-11.203 6.232-2.328 1.817-4.506 3.785-6.413 6.038a37.545 37.545 0 0 0-5.151 8.335c-.315.675-.526 1.396-.856 2.282Zm-13.036-189.347c-1.096.51-2.087.871-2.973 1.502-2.914 2.103-5.512 4.55-8.23 6.878a9.762 9.762 0 0 0-3.334 6.143c-.436 3.063-.06 6.082.66 9.07a64.577 64.577 0 0 0 3.53 11.444q.676 1.487 1.412 2.944c.06-.466-.075-.826-.15-1.217-.511-2.463-.857-4.94-1.277-7.419q-.54-3.003.045-5.917c.51-2.433 1.652-4.715 2.899-6.878.96-1.667 2.102-3.229 3.018-4.926a51.061 51.061 0 0 0 3.454-7.569c.45-1.276 1.067-2.538.931-4.085Zm-49.154-.54a13.516 13.516 0 0 0-4.955-5.902 64.577 64.577 0 0 0-10.813-5.902c-.856-.33-1.652-.811-2.523-1.097q-5.978-1.922-11.985-3.784c-2.388-.736-4.85-1.022-7.314-1.322-.21-.03-.465-.015-.585.18-.15.27.06.45.24.631a25.53 25.53 0 0 0 6.473 4.776c4.385 2.162 9.07 3.68 13.531 5.692 2.418 1.096 4.85 2.207 7.464 2.733 2.343.48 4.46 1.532 6.623 2.508 1.201.556 2.478.961 3.814 1.472Zm56.693 127.172c2.448-.06 4.791-.075 7.134.165 2.133.21 4.265.556 6.413.286q3.379-.406 6.788-.466c2.943-.06 5.902-.06 8.665-1.306q2.959-1.322 5.347-3.515c.51-.465.39-.75-.136-1.006a13.516 13.516 0 0 0-3.739-1.201c-2.628-.406-5.211.045-7.794.315q-3.65.39-7.27 1.036-2.387.42-4.685 1.187a109.631 109.631 0 0 0-7.088 2.703c-1.217.51-2.463.991-3.635 1.802M542.316 287.51c.06.375.06.615.15.84a25.53 25.53 0 0 0 3.049 5.722c1.501 1.968 3.018 3.935 4.25 6.098 1.667 2.913 3.243 5.887 5.256 8.59 1.081 1.457 1.997 3.064 2.598 4.836q.871 2.643 1.412 5.376c.66 3.14 1.186 6.308 1.276 9.537.03.99.286 1.967.436 2.943l.33-.03c0-2.162-.09-4.34.015-6.488q.3-5.962-1.667-11.548a78.094 78.094 0 0 0-3.904-9.357c-1.307-2.628-2.914-5.076-4.326-7.644-1.201-2.192-2.943-4.04-4.61-5.902a10.513 10.513 0 0 0-4.235-2.958Zm73.242 247.616c1.803.601 3.214 1.908 4.941 2.598.751.3 1.517.586 2.373.676 1.983.196 3.935.556 5.917.796 1.607.195 3.184.12 4.58-.856.572-.39.767-.736.046-1.216-.916-.6-1.742-1.352-2.673-1.923a15.018 15.018 0 0 0-4.971-2.042c-1.457-.3-2.869-.03-4.28.21-2.013.346-4.025.736-5.918 1.757Zm-14.417-1.531c-3.334-4.386-8.064-6.218-13.2-7.33a30.036 30.036 0 0 0 13.2 7.33M545.71 251.917c.105-1.171-1.983-5.121-2.839-5.617.736 1.953 2.013 3.544 2.839 5.617"></path><path d="M576.997 471.208q-.15 0-.27-.03c-1.442-.721-2.568.18-3.77.72-2.207.962-4.4 1.593-6.923 1.112a30.036 30.036 0 0 0-8.605.06c-2.583.285-5.136.931-7.75.676a24.029 24.029 0 0 1-5.541-1.127c-1.697-.585-3.32-1.381-5.031-1.937-.586-.195-1.142-.465-1.172-1.126-.03-.736.466-1.142 1.142-1.367a33.04 33.04 0 0 1 6.803-1.532q5.557-.675 11.143-1.261c2.734-.3 5.467-.646 8.2-.811 2.358-.15 4.716.045 6.953.886 1.157.435 2.328.931 3.094 2.042q.556.856 1.592 1.202c.36.105.72.375.961.676.27.33.616.72.36 1.246-.24.496-.69.556-1.17.556Zm-35.758-1.592c.376.51.916.54 1.352.736 2.808 1.231 5.722 1.907 8.83 1.727 2.494-.135 4.896-.751 7.374-.901 2.448-.15 4.881-.346 7.33.045a7.509 7.509 0 0 0 4.25-.346c1.366-.57 2.612-1.351 3.949-1.952.616-.285.135-.48-.105-.69-1.727-1.578-3.905-1.848-6.067-1.998-3.875-.27-7.675.495-11.49.991-4.16.526-8.35.901-12.48 1.637-.975.18-1.966.36-2.943.75"></path></g><g fill="#4962bf" stroke="#f4f2f2" stroke-width="3.27" paint-order="stroke"><path d="M188.99 215.875c.406-.366.72-.615 1.007-.903 1.78-1.7 3.715-3.217 5.598-4.787l3.14-2.577c1.347-1.125 2.642-2.341 4.185-3.27.85-.51 1.61-1.255 2.512-1.752.261-.144.51-.354.81-.314.51.078.628-.223.785-.628a22.236 22.236 0 0 1 2.878-5.075c.732-.994 1.517-2.014 2.446-2.917.89-.876 1.74-1.857 2.642-2.72 1.086-1.034 2.368-1.871 3.636-2.708a23.02 23.02 0 0 1 10.844-3.715c3.309-.275 6.631-.288 9.954-.366 2.066-.052 4.08-.523 6.134-.641 2.708-.17 5.428-.497 8.057-1.164 1.74-.445 3.532-.68 5.245-1.269l.51-.17c2.276-.419 4.435-1.256 6.645-1.91q3.113-.902 6.2-1.936c1.87-.654 3.767-1.281 5.598-2.014.837-.34 1.727-.602 2.55-1.02a1.7 1.7 0 0 1 1.95.248c.51.406.144.968.04 1.492-.328 1.818-1.427 3.23-2.381 4.721a35.316 35.316 0 0 1-4.265 5.298c-1.203 1.23-2.616 2.276-4.041 3.296-1.086.772-2.302 1.334-3.283 2.276-.406.38-1.008.602-1.53.89a82.404 82.404 0 0 1-8.176 4.041c-2.171.916-4.434 1.504-6.618 2.341-1.74.667-3.623.968-5.428 1.505-3.283.98-6.71 1.124-10.02 1.83-2.511.524-5.035.786-7.547 1.27-1.033.196-2.093.209-3.126.248-3.178.118-6.226.994-9.34 1.478-1.477.236-2.968.314-4.46.471q-2.694.288-5.27 1.138c-1.766.562-3.35 1.57-5.05 2.276a20.928 20.928 0 0 0-5.872 3.531q-1.714 1.505-3.454 2.97a40.548 40.548 0 0 0-4.512 4.538c-1.374 1.557-2.956 2.891-4.356 4.382a30.084 30.084 0 0 1-2.655 2.472c-.994.824-1.818 1.87-2.734 2.773-.968.942-1.779 2.028-2.825 2.917-.772.654-1.439 1.504-2.093 2.302-.85 1.034-1.857 1.884-2.681 2.943-1.217 1.583-2.512 3.113-3.767 4.657q-1.831 2.276-3.623 4.617c-.654.863-1.217 1.857-1.91 2.642-.85.968-1.151 2.302-2.21 3.074-.34.248-.367.667-.576.98q-1.112 1.74-2.46 3.297c-.692.798-1.451 1.53-2.144 2.341a61.476 61.476 0 0 0-6.017 8.646c-.968 1.766-2.014 3.493-2.995 5.245-.824 1.465-1.426 3.048-2.316 4.474-.392.654-.47 1.412-.771 2.092q-1.61 3.663-3.153 7.365c-.327.797-.484 1.66-.784 2.472-.746 2.106-1.518 4.198-2.028 6.37-.052.235-.261.444-.444.732.627.013.706-.47.863-.785q1.112-2.289 2.171-4.604c.052-.105.052-.248.118-.327 1.282-1.413 1.779-3.296 2.943-4.8 1.02-1.321 1.988-2.734 2.995-4.068.746-.994 1.74-1.857 2.577-2.825 1.321-1.518 2.851-2.826 4.25-4.251.903-.916 1.976-1.61 2.97-2.381a56.244 56.244 0 0 1 5.912-4.107q1.714-.981 3.44-1.936a107.256 107.256 0 0 1 7.6-3.976 83.712 83.712 0 0 0 4.316-2.25c1.491-.824 3.048-1.557 4.552-2.328 1.74-.89 3.453-1.845 5.232-2.669q3.859-1.778 7.613-3.714c2.432-1.256 4.97-2.355 7.337-3.728 1.348-.785 2.891-1.177 4.173-2.001 1.452-.929 3.113-1.308 4.617-2.08 1.622-.824 3.48-1.046 5.232-1.53q3.27-.89 6.5-1.884c.524-.157.877-.693 1.505-.732.406-.027.733.039.903.418.17.366.039.693-.249.981-1.321 1.269-2.407 2.747-3.636 4.094-1.648 1.805-2.982 3.872-4.866 5.507-.693.602-1.308 1.439-1.883 2.223-.628.864-1.413 1.596-2.106 2.381-1.034 1.177-2.067 2.368-3.166 3.466-.954.955-2.053 1.792-3.073 2.682-1.27 1.098-2.695 1.949-4.108 2.786-1.543.928-3.047 1.922-4.63 2.799-1.596.876-3.257 1.674-4.813 2.642q-2.355 1.465-4.604 3.048c-1.44 1.007-2.996 1.857-4.408 2.956-1.36 1.06-3.048 1.7-4.565 2.55-1.491.837-3.205 1.256-4.526 2.394-.51.432-1.203.445-1.792.785l-4.264 2.406c-1.347.746-2.812 1.243-4.094 2.106-.563.38-1.282.524-1.87.837-1.858.995-3.78 1.819-5.664 2.734-1.02.497-2.028 1.099-3.14 1.465-.863.288-1.634.955-2.524 1.282a52.32 52.32 0 0 0-5.01 2.184 28.776 28.776 0 0 0-4.29 2.46q-1.439 1.098-2.943 2.131c-.601.406-1.046.877-1.164 1.622-.026.157.026.471-.196.419-.628-.157-.746.327-.863.667-.537 1.491-1.374 2.838-2.12 4.212a70.632 70.632 0 0 0-2.798 5.938c-.537 1.256-.85 2.603-1.335 3.898-.863 2.302-1.203 4.748-1.988 7.05-.562 1.661-.85 3.44-1.582 5.01-1.02 2.184-1.426 4.525-2.185 6.775-.72 2.093-.915 4.382-1.203 6.605-.262 1.976.144 3.872.405 5.782.21 1.452.38 2.917.68 4.342.275 1.27.641 2.512.811 3.807q.654 4.748.995 9.535c.222 3.192.64 6.37.98 9.561q.471 4.422.066 8.869-.13 1.609-.105 3.23c.04 2.616-.13 5.232-.654 7.77-.575 2.773-.798 5.637-1.726 8.319-.837 2.42-1.452 4.905-2.132 7.364a23.544 23.544 0 0 0-.628 7.94c.21 3.243.288 6.5.575 9.744.105 1.151-.143 2.302.066 3.388.445 2.354.157 4.722.445 7.063.143 1.216-.027 2.446.117 3.675q.105.942-.863 1.165c-1.884.379-2.315-.066-2.341-1.53q-.131-5.795-.327-11.563c-.066-1.91-.04-3.846-.38-5.716-.601-3.349-.51-6.71-.536-10.072 0-2.054-.105-4.107-.092-6.174 0-1.412-.431-2.734-1.91-3.584a43.164 43.164 0 0 1-4.983-3.492c-.837-.654-1.556-1.478-2.25-2.302-.326-.406-.732-.68-1.098-1.02-1.02-.994-2.315-1.596-3.427-2.46-.654-.51-1.413-.889-2.12-1.334-1.752-1.111-3.714-1.608-5.663-2.236-1.425-.458-2.982-.615-4.29-1.4-.785-.47-1.465-1.085-2.25-1.543-.955-.563-1.752-1.321-2.707-1.897q-1.74-1.06-3.153-2.668-.915-1.06-1.962-1.975c-.837-.707-1.49-1.57-2.315-2.29-1.072-.928-2.236-1.634-3.414-2.367-1.935-1.216-4.185-1.635-6.213-2.629-1.216-.588-2.642-.758-3.897-1.282-2.786-1.15-5.573-2.328-8.437-3.296-1.112-.38-2.21-.837-3.388-1.046a2.526 2.526 0 0 1-1.439-.824c-.444-.497-.549-1.007 0-1.544a6.54 6.54 0 0 1 2.839-1.752c1.713-.471 3.257-1.4 5.036-1.74 2.864-.563 5.729-.824 8.632-.523 2.525.261 5.075.353 7.574.771 1.452.236 2.969.092 4.395.68.379.158 1.007.118 1.53.144 2.158.105 4.343.34 6.37 1.008 2.354.784 4.67 1.792 6.566 3.518q2.354 2.198 4.696 4.421c.222-.21.17-.418.052-.588-.942-1.557-1.242-3.349-1.661-5.062-.47-1.91-1.19-3.741-1.687-5.65-.942-3.637-1.95-7.234-2.342-10.988-.157-1.478-.614-2.917-.68-4.395-.091-1.936-.3-3.885-.17-5.834.144-2.263.079-4.552.38-6.801.444-3.257.614-6.527.876-9.784.327-3.937.431-7.887.588-11.838.105-2.903.327-5.794.131-8.685l-.196-2.956c-.092-1.242.759-1.74 1.609-2.093.615-.261 1.295.249 1.805.668a9.156 9.156 0 0 1 2.524 3.165c.249.536.837.824 1.138 1.36.837 1.465 1.962 2.747 2.852 4.16.837 1.32 2.001 2.393 2.72 3.819.367.746 1.06 1.308 1.53 2.04 1.348 2.12 2.721 4.225 3.676 6.567.04.104.066.235.288.248-.092-1.57-.144-3.139-.275-4.696a96.792 96.792 0 0 1-.274-7.795c0-2.21-.079-4.421-.079-6.632q0-4.5-.523-8.933a130.8 130.8 0 0 1-.68-7.103c-.118-1.87-.249-3.754-.249-5.637 0-1.321-.183-2.669-.274-4.016q-.288-3.924-.497-7.848c-.027-.55-.367-.955-.406-1.517-.34-4.434-.55-8.881-.497-13.329 0-.824-.34-1.125-1.02-1.295a23.544 23.544 0 0 1-5.442-1.922 10.464 10.464 0 0 0-3.165-1.125c-.876-.157-1.687-.458-2.577-.079-.431.196-.902.092-1.386-.078-1.387-.458-2.786-.17-4.16.157a40.548 40.548 0 0 0-7.272 2.459c-1.779.81-3.662 1.295-5.402 2.171-1.164.589-2.485.85-3.662 1.413a74.556 74.556 0 0 1-5.886 2.406c-1.413.537-2.97.707-4.408 1.204-2.303.785-4.683 1.295-6.959 2.158-1.439.55-2.995.811-4.539.994a44.472 44.472 0 0 1-8.292.118c-2.891-.21-5.769-.105-8.66-.236-2.524-.117-5.061-.183-7.534-.745-2.053-.471-4.146-.877-6.16-1.504-3.78-1.19-7.704-1.413-11.563-2.132-.55-.105-.916-.458-1.413-.628-.353-.118-.261-.68 0-1.02.458-.563 1.086-.93 1.727-1.243q3.021-1.491 6.07-2.93 3.178-1.517 6.395-2.943c1.465-.667 3.048-1.073 4.46-1.792 1.871-.955 3.99-1.256 5.808-2.354a7.848 7.848 0 0 1 2.603-.903c1.713-.34 3.191-1.282 4.853-1.779 2.25-.68 4.342-1.857 6.657-2.38.746-.17 1.335-.707 2.093-.929 1.112-.327 2.29-.484 3.375-.929 2.773-1.15 5.729-1.334 8.659-1.49 1.713-.092 3.453.038 5.18.26.379.053.771 0 1.111 0-2.603-1.203-5.467-1.922-7.874-3.583-1.609-1.099-3.218-2.185-4.735-3.44a88.944 88.944 0 0 1-4.696-4.186 24.852 24.852 0 0 1-2.34-2.511 19.39 19.39 0 0 0-2.447-2.525c-.942-.797-1.556-1.83-2.341-2.733-.707-.811-1.491-1.583-2.067-2.499-.745-1.177-1.779-2.119-2.681-3.152-1.387-1.583-2.59-3.348-4.251-4.696-.393-.314-.51-.85-.864-1.242a28.776 28.776 0 0 1-5.075-7.168c-.627-1.36-1.556-2.577-1.896-4.055-.144-.628-.327-1.282.196-1.779.484-.458 1.073-.183 1.674-.13 1.269.104 2.42.614 3.663.784.994.131 1.896.615 2.864.903 1.177.353 2.46.418 3.532.968 1.648.863 3.505 1.164 5.101 2.197.706.458 1.635.693 2.485.981q2.642.877 5.088 2.132c1.61.824 3.427 1.204 4.866 2.355.38.3.942.34 1.413.549 2.328 1.073 4.578 2.302 6.919 3.31 2.276.993 4.473 2.157 6.815 3.047a24.852 24.852 0 0 1 4.211 1.896c1.1.668 2.407.903 3.388 1.649 1.282.98 2.852 1.36 4.12 2.354 1.06.824 2.342 1.413 3.558 2.027 2.982 1.505 5.952 3.022 8.816 4.735 1.491.89 2.825 2.054 4.29 3.022.994.64 1.87 1.425 2.773 2.158a24.852 24.852 0 0 1 5.31 5.572c.223-.523.25-.955.236-1.373-.078-4.513-.118-9.039-.288-13.551-.157-4.16-.091-8.306-.091-12.465 0-1.4-.092-2.813-.445-4.238-.497-2.015-.785-4.108-1.4-6.109-1.19-3.82-.915-7.874-1.844-11.72-.562-2.328-.941-4.734-1.726-6.984a7.848 7.848 0 0 0-2.525-3.427c-1.57-1.19-2.524-2.995-4.094-4.186-.968-.732-1.83-1.609-3.008-2.093-.876-.366-1.491-1.15-2.132-1.83-.458-.498-.811-1.008-1.465-1.348a7.848 7.848 0 0 1-2.04-1.7c-1.034-1.164-2.303-1.975-3.571-2.839-1.675-1.138-3.1-2.642-4.775-3.767-1.412-.968-2.537-2.289-4.068-3.113-.313-.17-.497-.588-.797-.824a30.084 30.084 0 0 0-4.173-2.93c-.366-.209-.654-.497-.968-.72-1.216-.836-2.25-1.909-3.296-2.93-.863-.836-1.884-1.503-2.708-2.393-.771-.837-1.765-1.478-2.694-2.158-1.086-.798-1.923-1.844-2.917-2.734-1.033-.915-1.753-2.092-2.799-3.008-.811-.706-1.452-1.622-2.171-2.446-.877-1.007-1.91-1.818-2.786-2.825a27.468 27.468 0 0 0-3.296-3.27c-.955-.772-1.662-1.7-2.368-2.603-.85-1.073-1.923-1.91-2.72-3.022-.485-.68-1.413-.915-1.897-1.713-.366-.602-.445-1.125-.066-1.661.419-.589 1.047-.445 1.544-.157q1.452.863 2.825 1.857 1.151.824 2.328 1.583 1.727 1.098 3.506 2.093c1.177.68 2.446 1.203 3.662 1.805 1.753.863 3.532 1.635 5.258 2.563 1.204.654 2.237 1.53 3.401 2.237 2.054 1.23 3.937 2.72 5.912 4.055 1.832 1.23 3.728 2.393 5.56 3.623 1.203.81 2.314 1.818 3.387 2.851q1.766 1.714 3.545 3.388a104.64 104.64 0 0 0 6.16 5.402q1.348 1.047 2.538 2.315c.81.864 1.491 1.884 2.446 2.616.353.262.38.654.602.968.784 1.112 1.66 2.145 2.485 3.218.771 1.007 1.66 1.962 2.55 2.904 1.178 1.255 2.355 2.537 3.283 4.041 1.61 2.63 2.46 5.546 3.558 8.385.811 2.092 1.112 4.33 1.897 6.383a39.24 39.24 0 0 1 1.818 6.618c.052.236.026.654.366.628.38-.026.196-.432.21-.654q.287-6.998 1.307-13.93c.563-3.898.668-7.835 1.4-11.707q.72-3.82 1.583-7.586c.34-1.517.3-3.1.732-4.591.798-2.708.968-5.56 2.132-8.188.589-1.348.837-2.865 1.112-4.33.327-1.661.968-3.244 1.282-4.905.458-2.407 1.713-4.539 2.276-6.92.261-1.15 1.02-2.118 1.32-3.282.459-1.714 1.165-3.388 1.427-5.128.405-2.812.287-5.663.091-8.515-.065-.98.026-2-.81-2.72-1.91-1.635-3.846-3.126-6.606-2.956-2.407.143-4.84.065-7.247.209-3.152.196-6.304.21-9.391-.288-3.715-.615-7.43-.3-11.144-.497-2.29-.118-4.578-.248-6.789-.955a9.156 9.156 0 0 1-1.452-.654c-.967-.523-2.08-.654-3.165-.824-1.91-.288-3.636-1.164-5.467-1.7-1.714-.497-3.336-1.23-5.036-1.74-1.282-.38-2.407-1.242-3.571-1.936-1.831-1.098-3.832-1.805-5.834-2.524-1.255-.458-2.603-.89-3.61-1.714-1.818-1.49-3.82-2.746-5.572-4.33-.64-.575-1.622-.745-1.923-1.752-.209-.732-.078-1.099.654-1.216l6.161-1.02q3.545-.59 7.142-.432 4.041.196 8.07.34c2.04.065 4.094.21 6.043.706 1.753.445 3.519.837 5.258 1.308 1.19.327 2.433.327 3.636.537 3.388.601 6.828.654 10.242.967q2.747.262 5.546.301c2.498.04 4.787.916 7.063 1.78 2.145.81 4.395 1.281 6.501 2.157 1.386.576 2.786 1.27 3.937 2.302.17.144.353.197.536.288a9.156 9.156 0 0 1 3.911 3.558c.445.811 1.138 1.452 1.518 2.302.732 1.635 1.687 3.152 2.275 4.866.524 1.504.981 3.06 1.766 4.46.85 1.53.785 3.14.824 4.774v.994c.432-.104.458-.444.563-.693.81-1.936 1.87-3.754 2.89-5.598.89-1.609 1.91-3.126 2.813-4.735 1.125-2.014 2.38-3.95 3.597-5.912 1.203-1.936 2.485-3.82 3.623-5.795.994-1.74 2.302-3.257 3.361-4.93l2.302-3.585c1.27-1.936 2.224-4.028 3.27-6.069.772-1.491 1.845-2.864 2.172-4.552.379-1.975 1.57-3.74 1.347-5.873-.13-1.268-.079-2.524-.863-3.662-.406-.589-.537-1.386-.772-2.093-.615-1.779-1.622-3.388-2.55-4.996-.563-.968-.942-2.054-1.596-2.943q-.916-1.282-1.805-2.603c-.785-1.164-1.348-2.42-2.028-3.637-1.112-1.975-1.648-4.133-2.197-6.265-.877-3.374-1.217-6.828-.314-10.294.51-1.949 1.02-3.91 1.883-5.729a78.48 78.48 0 0 1 2.891-5.493c.955-1.662 1.949-3.349 2.302-5.298.092-.55.3-.98.968-.955.68.026.667.576.785 1.034.745 3.06 1.36 6.173 2.289 9.169.575 1.857 1.06 3.754 1.792 5.572a39.24 39.24 0 0 1 2.851 10.36c.236 2.157.994 4.224 1.413 6.343.418 2.132.497 4.316.392 6.5-.091 1.963.079 3.938 0 5.913-.091 2.302-.327 4.591-.458 6.893-.026.562-.327 1.02-.523 1.491-.68 1.687-.144 3.61-1.072 5.232-.824 1.439-1.544 2.904-2.486 4.277-1.072 1.557-2.354 2.983-3.296 4.931 2.12-1.595 4.003-3.086 5.965-4.473 2.197-1.556 4.382-3.126 6.67-4.578a61.476 61.476 0 0 0 5.939-4.185c1.072-.864 2.132-1.766 3.244-2.603.667-.51 1.164-1.217 1.844-1.78a61.476 61.476 0 0 1 5.572-4.25q2.63-1.714 5.363-3.283c1.674-.955 3.44-1.7 5.193-2.433 1.595-.667 3.4-.955 5.14-1.177 1.439-.184 2.878-.458 4.317-.576l5.702-.405c3.192-.223 6.397-.223 9.575-.602 1.36-.17 2.747-.222 4.107-.393 1.884-.235 3.689-.837 5.585-1.046 1.387-.157 2.812-.288 4.134-.693 1.765-.536 3.597-.785 5.375-1.23q1.465-.379 2.956-.72c.458-.104.955-.051 1.138.472.223.654.04 1.334-.51 1.687-1.085.693-1.91 1.687-2.917 2.472-1.674 1.295-3.44 2.472-5.127 3.754-1.007.772-2.106 1.282-3.204 1.858-2.8 1.504-5.808 2.485-8.725 3.688-2.197.903-4.512 1.308-6.736 2.067-2.315.798-4.683 1.164-7.09 1.255q-4.093.157-8.2.184c-2.263 0-4.579.026-6.802.444-3.532.667-7.168.484-10.634 1.44-2.355.653-4.709 1.372-6.75 2.837-1.137.824-2.406 1.478-3.688 2.093-.89.432-1.622 1.177-2.433 1.78a39.24 39.24 0 0 1-6.213 3.858 15.696 15.696 0 0 0-4.186 2.943q-1.464 1.4-3.06 2.694c-.314.262-.432.654-.707.916-1.726 1.596-2.89 3.636-4.42 5.376-.85.968-1.61 2.027-2.473 2.982q-1.674 1.844-3.126 3.95-1.046 1.544-2.132 3.035c-1.072 1.452-1.936 3.073-2.838 4.643-.772 1.347-1.452 2.773-2.46 3.99-.392.47-.536 1.059-.823 1.582a82.404 82.404 0 0 0-2.656 5.415c-.915 2.08-1.818 4.173-2.89 6.187-1.308 2.46-2.564 4.957-3.584 7.547a45.78 45.78 0 0 0-2.42 8.018c-.262 1.348-.863 2.656-1.269 3.99-.785 2.59-1.805 5.1-2.354 7.77-.196.98-.536 1.935-.733 2.93-.065.352-.117.692-.026 1.124.929-.916 1.256-2.119 1.897-3.14 1.426-2.275 2.76-4.603 4.225-6.853 1.465-2.25 3.335-4.16 5.022-6.2 1.387-1.674 2.891-3.27 4.134-5.036a32.7 32.7 0 0 0 3.034-5.31c.667-1.465 1.164-2.996 1.818-4.448.798-1.74 1.125-3.623 1.975-5.31.654-1.295.916-2.825 1.792-3.937.916-1.151 1.583-2.46 2.525-3.61q1.766-2.145 3.505-4.317c.903-1.111 1.962-2.053 2.917-3.073.916-.981 1.923-1.962 3.074-2.773 1.57-1.099 3.087-2.276 4.63-3.401q1.988-1.465 4.042-2.865c2.289-1.53 4.552-3.1 6.893-4.551 2.028-1.256 4.029-2.551 6.095-3.768a90.252 90.252 0 0 0 7.77-4.97c.47-.353 1.02-.55 1.426-1.033.34-.393.954-.615 1.373-.223.419.393.628.93.249 1.61-1.335 2.419-2.708 4.8-3.924 7.285a54.936 54.936 0 0 1-3.532 6.278c-1.295 1.975-2.46 4.029-3.793 5.978-1.19 1.726-2.302 3.505-3.506 5.219a35.316 35.316 0 0 1-3.675 4.656c-1.347 1.347-2.46 2.917-3.793 4.29-1.047 1.073-2.25 1.989-3.401 2.97-.837.706-1.779 1.281-2.642 1.935-.89.694-1.845 1.308-2.695 2.04a28.776 28.776 0 0 1-4.42 2.944c-.903.51-1.649 1.23-2.59 1.7q-2.381 1.177-4.775 2.302c-1.321.641-2.564 1.452-3.806 2.237-.981.615-1.95 1.269-3.166 1.269q-.353.013-.497.327c-.941 1.936-2.472 3.427-3.74 5.114-.733.981-1.622 1.831-2.446 2.668-.903.916-1.753 1.923-2.616 2.865-1.112 1.23-2.263 2.524-3.1 4.015-.759 1.335-1.622 2.616-2.446 3.911-.236.38-.615.68-.707 1.125-.235 1.099-1.125 1.792-1.713 2.642a17.004 17.004 0 0 0-2.682 6.501c-.706 3.65-1.373 7.299-1.805 11-.588 4.945-.85 9.915-1.465 14.846-.222 1.78-.196 3.584-.444 5.35-.157 1.112.052 2.197 0 3.296-.183 3.466.34 6.906.104 10.373-.143 2.08.066 4.172-.091 6.239-.092 1.177.026 2.367-.249 3.544-.144.602.249 1.295.249 2.002 0 2.511.104 5.022.17 7.534 0 .078.052.157.13.366l.655-1.334c1.373-2.564 1.792-5.402 2.406-8.188q.563-2.472 1.295-4.905a44.472 44.472 0 0 0 1.845-8.803c.17-2.394.209-4.774.274-7.168.066-2.328-.065-4.67.17-6.972a11.772 11.772 0 0 1 1.308-4.329c1.19-2.21 2.315-4.473 3.754-6.527a27.468 27.468 0 0 1 4.16-5.01c1.098-.968 2.08-2.08 3.204-3.021 1.465-1.217 2.786-2.63 4.487-3.558.72-.392 1.177-1.125 1.962-1.504 1.242-.602 2.367-1.439 3.518-2.171 1.57-1.007 3.244-1.858 4.918-2.577 2.786-1.203 5.586-2.38 8.45-3.4 1.766-.629 3.545-1.178 5.31-1.806 1.688-.589 3.401-1.046 5.102-1.596 2.642-.85 5.376-1.334 8.03-2.119 2.617-.784 5.311-1.072 7.927-1.713 2.996-.733 6.109-.929 9.052-1.779 2.289-.667 4.643-.994 6.945-1.53 3.074-.72 6.24-1.125 9.34-1.727 1.255-.248 2.471-.654 3.714-.98.497-.132 1.073-.263 1.439.182.353.419.065.942-.105 1.374a20.928 20.928 0 0 1-1.609 3.178 44.472 44.472 0 0 1-2.89 4.199c-1.125 1.504-2.603 2.655-4.055 3.82-1.727 1.399-3.636 2.51-5.52 3.675q-2.224 1.4-4.526 2.642c-1.752.928-3.479 1.922-5.245 2.838-2.341 1.217-4.774 2.184-7.168 3.283-2.524 1.164-5.232 1.792-7.743 2.982-.693.327-1.491.432-2.237.654a82.404 82.404 0 0 1-7.952 2.015 22.683 22.683 0 0 0-5.82 1.988c-1.348.68-2.617 1.596-3.899 2.42-1.347.876-2.655 1.896-4.185 2.498-.942.366-1.583 1.203-2.577 1.556-2.119.746-4.146 1.753-6.252 2.564q-2.55.955-5.167 1.714c-2.106.64-4.185 1.36-6.448 1.53-1.95.144-3.95.562-5.834 1.23-.955.34-.863 1.32-.863 2.08 0 2.955.196 5.924-.34 8.828-.432 2.355-.537 4.735-1.034 7.063-.3 1.4-.327 2.865-.732 4.225q-.602 1.95-.994 3.937c-.105.524-.17 1.073-.366 1.57-.798 2.067-1.387 4.225-2.42 6.213q-.523 1.046-.798 2.184c-.406 1.518-1.086 2.943-1.609 4.408a19.62 19.62 0 0 0-.916 7.142c.04 2.145.144 4.303.105 6.448-.026 1.178.536 2.132.903 3.153.784 2.145 1.281 4.408 2.21 6.461.798 1.766 1.203 3.65 2.014 5.39.327.705.419 1.556.484 2.354.275 2.773.262 5.545.21 8.332-.04 2.21-1.02 4.198-1.753 6.226-1.007 2.773-2.132 5.506-2.145 8.515q.013 2.864.222 5.729.34 4.944.785 9.888c.092 1.034.288 2.093.314 3.087.04 1.557.13 3.113.157 4.683.078 4.813.17 9.614.432 14.414q.287 5.86.51 11.733.065 1.648.052 3.309c0 1.099.366 2.053.955 2.982.772 1.23.928 2.747 1.713 3.99.092.143.144.353.432.327q.222-2.172.89-4.251c.706-2.12 1.033-4.356 1.83-6.423.798-2.066 1.1-4.264 1.832-6.317.968-2.734 1.53-5.586 2.563-8.306q1.27-3.453 2.669-6.815c1.033-2.446 1.805-4.97 2.642-7.469q1.504-4.381 2.917-8.79c.575-1.817 1.216-3.688 2.25-5.375.614-1.007.876-2.21 1.334-3.323.81-2.014 1.255-4.172 2.027-6.186.497-1.282.903-2.472.366-3.754-.902-2.159-1.308-4.421-1.7-6.71-.21-1.217-.602-2.407-1.033-3.558-.694-1.805-.589-3.715-.916-5.56-.746-4.12-.275-8.292-.746-12.412a53.628 53.628 0 0 0-.693-4.33c-.222-1.137-.222-2.262-.17-3.4q.275-6.318.706-12.636c.131-1.87.079-3.78.602-5.585q.654-2.276 1.099-4.578c.51-2.668 1.373-5.232 2.119-7.835.38-1.308.942-2.563 1.465-3.832.68-1.609 1.32-3.244 2.119-4.8.85-1.649 1.517-3.388 2.59-4.945.627-.915 1.164-1.91 1.883-2.786q.576-.732 1.374-1.125c1.504-.745 2.59-.183 2.812 1.478.287 2.12.654 4.251.745 6.383.105 2.355-.091 4.71-.117 7.064-.04 2.864.039 5.729-.066 8.593q-.157 4.042-.13 8.07c.012 2.486.143 4.984.562 7.39.38 2.198.314 4.356.144 6.488q-.236 2.747-.746 5.468c-.55 3.048-1.726 5.886-2.825 8.737-.929 2.42-1.4 4.905-2.001 7.377-.563 2.303-.537 4.644-.981 6.946.758-2.145 1.687-4.225 2.59-6.292.693-1.582 1.033-3.322 1.896-4.76.955-1.596 1.203-3.401 2.067-5.01.64-1.19.955-2.59 1.216-3.924.183-.903.693-1.622.981-2.446.314-.89.471-1.831.837-2.72.589-1.479.994-3.022 1.544-4.514.667-1.844 1.32-3.688 2.106-5.48 1.23-2.812 2.459-5.624 3.871-8.332q1.23-2.341 2.603-4.63a47.088 47.088 0 0 1 7.09-9.457l4.394-4.382c1.06-1.06 2.316-1.936 3.493-2.864q2.406-1.858 4.84-3.702l4.211-3.192c1.007-.771 2.093-1.465 3.048-2.302q1.465-1.295 2.995-2.485c1.504-1.164 3.035-2.354 4.8-3.178.746-.354 1.426-.824 2.132-1.256q.524-.3 1.112-.288c.55 0 1.164.053 1.413.576.222.458-.052.955-.314 1.412-.47.824-.759 1.766-1.256 2.564-1.007 1.583-1.465 3.414-2.367 5.049-.576 1.033-.824 2.237-1.387 3.283-.824 1.504-1.216 3.205-2.262 4.604-.327.445-.471 1.033-.72 1.544-.929 1.962-1.713 3.989-2.616 5.951a41.856 41.856 0 0 1-2.171 4.343c-.968 1.595-1.988 3.152-2.852 4.813-.457.876-1.347 1.478-1.648 2.668Zm-75.302 32.896a5.232 5.232 0 0 0-.483-1.726c-.563-1.073-1.047-2.185-1.57-3.27-1.269-2.669-2.198-5.494-4.042-7.888-.928-1.203-1.622-2.629-2.694-3.714q-1.295-1.308-2.72-2.499c-1.008-.837-2.107-1.57-3.088-2.446-1.373-1.23-3.021-2.092-4.5-3.178-1.242-.903-2.641-1.517-3.936-2.354-1.112-.72-2.407-1.217-3.624-1.819-1.66-.824-3.165-1.87-4.748-2.812-1.412-.837-2.943-1.439-4.303-2.38-1.256-.864-2.799-1.19-4.172-1.936a28.776 28.776 0 0 0-4.134-1.818c-2.001-.72-3.793-1.818-5.768-2.55-.445-.171-.942-.276-1.321-.55-1.557-1.164-3.44-1.648-5.101-2.603-.837-.484-1.897-.693-2.642-1.204-1.348-.915-2.904-1.268-4.304-2a51.012 51.012 0 0 0-5.049-2.277c-.497-.196-1.046-.327-1.504-.588-2.145-1.256-4.59-1.78-6.854-2.76-1.57-.667-3.335-.89-5.022-1.308-.197-.053-.458-.157-.59.039-.156.249.066.458.223.615.981.994 1.648 2.25 2.76 3.126 1.217.968 2.171 2.276 3.767 2.72q.615.158 1.034.85c-.798-.156-1.335-.614-1.962-.863a6.54 6.54 0 0 1-2.499-1.66c-.876-.969-1.831-1.884-2.747-2.826-.588-.615-1.255-1.177-1.425-2.067-.066-.353-.327-.562-.654-.444-.367.13-.21.549-.066.667.798.706.864 1.831 1.491 2.616 1.008 1.255 1.649 2.76 2.734 4.015.785.89 1.504 1.897 2.276 2.813 1.674 1.988 3.48 3.858 5.154 5.833q2.576 3.087 5.219 6.109a111.18 111.18 0 0 0 5.86 6.317q2.68 2.616 5.61 4.944a28.776 28.776 0 0 0 6.03 3.728c2.433 1.099 4.919 2.093 7.495 2.786.628.17.994.746 1.662.824 1.373.17 2.59.798 3.806 1.413.64.314 1.256.68 1.91.955a105.948 105.948 0 0 0 4.394 1.753c1.557.575 3.009 1.4 4.657 1.7 2.08.366 3.872 1.465 5.807 2.184.994.367 1.675 1.204 2.656 1.583 1.648.64 3.257 1.413 5.022 1.753.837.157 1.7.484 2.394.941.732.497 1.504.785 2.341 1.02 1.27.354 2.773.066 3.676 1.4.497.733 1.439.798 2.132 1.217a7.848 7.848 0 0 0 2.498.902c.275.053.484.131.72-.13.287-.328 0-.615-.092-.798a6.54 6.54 0 0 0-2.237-2.146c-.902-.562-1.87-1.033-2.42-2.158 1.073.55 1.74 1.544 2.943 1.923Zm7.064 152.67q.47-.314.497-.785c0-1.347.34-2.655.47-3.99.158-1.791.236-3.583.42-5.362.287-2.747.326-5.494.47-8.24.196-3.885.13-7.77-.484-11.629-.366-2.276-.327-4.59-.458-6.88-.157-2.616-.157-5.232-.771-7.822-.393-1.621-.51-3.322-.864-4.957-.601-2.799-1.36-5.572-1.308-8.476a7.848 7.848 0 0 0-1.203-4.447 18.016 18.016 0 0 1-2.08-4.172c-.785-2.198-1.988-4.251-2.485-6.554-.3-1.373-1.033-2.59-1.4-3.924-.706-2.59-2.053-4.865-3.335-7.18-.72-1.295-1.7-2.394-2.485-3.637-.68-1.072-1.544-2-2.237-3.073-1.138-1.766-2.642-3.27-3.558-5.193-.117-.249-.366-.537-.614-.432-.524.236-.524-.13-.615-.418-.052-.17.065-.432-.327-.497.275 3.191 0 6.356-.066 9.509-.091 3.806-.327 7.6-.562 11.392-.118 1.845-.575 3.65-.64 5.494q-.132 3.008-.315 6.004a73.248 73.248 0 0 0-.157 8.332c.17 2.969.327 5.938 1.138 8.842.641 2.302.837 4.709 1.648 6.998.824 2.315.994 4.826 1.91 7.141.68 1.727.929 3.597 1.635 5.35a49.704 49.704 0 0 0 2.354 5.258c.798 1.465 1.805 2.773 2.734 4.12 1.099 1.596 2.446 3.009 3.427 4.722 1.073 1.858 1.884 3.82 2.734 5.768.942 2.159 1.596 4.448 2.969 6.41a10.464 10.464 0 0 1 1.321 3.191 6.54 6.54 0 0 0 1.53 2.904c0-.3.027-.471 0-.641-.497-2.603-.392-5.284-.994-7.874a39.24 39.24 0 0 1-.902-5.376c-.157-1.687-1.02-3.165-1.204-4.827-.157-1.425-.287-2.851-.68-4.25-.288-1.02-.366-2.106-.536-3.166.21.052.275.144.314.249.706 1.988.837 4.12 1.517 6.121.589 1.74.85 3.584 1.321 5.363.563 2.119 1.034 4.25 1.295 6.435.17 1.387.157 2.8.576 4.199m1.936-221.745c.17.183.418.117.64.091 3.493-.523 7.011-.798 10.425-1.883 3.022-.968 6.004-2.054 8.986-3.126 2.956-1.06 5.428-2.891 8.07-4.435 1.479-.863 2.747-2.105 4.238-2.93 1.492-.824 3.14-1.438 4.762-1.975 2.275-.745 4.708-.889 6.997-1.726 2.002-.733 4.16-.929 6.135-1.857 1.517-.72 3.204-1.02 4.761-1.714 2.8-1.256 5.703-2.263 8.45-3.675 2.263-1.165 4.538-2.29 6.762-3.519 1.714-.942 3.492-1.753 5.167-2.76 1.504-.915 3.047-1.779 4.42-2.93a36.624 36.624 0 0 0 3.284-3.047c.771-.824 1.334-1.805 2.04-2.643a14.388 14.388 0 0 0 2.394-3.924c-.314-.157-.589-.052-.876.027-1.845.444-3.663.954-5.52 1.255-2.708.445-5.402.811-8.07 1.518-3.192.837-6.462 1.4-9.693 2.092-3.31.72-6.684 1.125-9.98 1.975-1.923.497-3.872.824-5.768 1.44-2.132.692-4.382 1.02-6.553 1.7q-3.584 1.15-7.129 2.406c-1.02.354-2.158.497-3.021 1.073-1.57 1.046-3.362 1.517-5.036 2.197a45.78 45.78 0 0 0-8.92 4.735c-1.23.85-2.473 1.688-3.637 2.669-.85.732-1.779 1.452-2.668 2.145a18.312 18.312 0 0 0-3.244 3.008q-.824 1.033-1.792 1.95c-.981.94-1.753 2.04-2.42 3.138-1.007 1.675-2.21 3.218-3.074 4.984-.588 1.203-1.15 2.406-1.465 3.714-.039.17-.117.367.131.432.196.052.393-.013.445-.21.235-.954.968-1.516 1.609-2.17 1.32-1.348 2.629-2.695 4.12-3.859.275-.222.693-.3.916-.562 1.464-1.74 3.4-2.865 5.27-4.003 2.25-1.373 4.644-2.498 6.79-4.08 1.674-1.244 3.557-2.211 5.31-3.362.484-.314 1.007-.916 1.805-.68-1.177.876-2.276 1.778-3.545 2.432q-.942.51-1.792 1.138c-1.609 1.151-3.348 2.093-4.97 3.231q-2.224 1.53-4.539 2.93a34.008 34.008 0 0 0-4.33 3.218c-.889.771-1.726 1.621-2.576 2.406-1.099 1.02-2.38 1.845-3.27 3.166ZM92.97 246.194c.248-.065.732.236.85-.196.092-.353-.392-.458-.654-.628-1.491-.89-3.152-1.4-4.774-1.936-2.145-.719-4.304-1.36-6.436-2.145-1.19-.431-2.197-1.138-3.296-1.687-.732-.353-1.53-.523-2.223-.942-1.23-.745-2.63-.902-4.003-1.15-2.472-.459-4.983-.55-7.482-.694-1.124-.065-2.276-.17-3.374-.026-3.244.418-6.488.81-9.536 2.171-1.425.641-2.969.942-4.434 1.557-3.322 1.412-6.801 2.406-10.137 3.819-1.543.654-3.191 1.099-4.735 1.805-1.373.628-2.838 1.033-4.25 1.596-3.31 1.295-6.514 2.799-9.784 4.172-.576.249-1.23.367-1.727.72-1.557 1.098-3.427 1.504-5.036 2.459-.183.104-.405.209-.353.444.04.197.262.21.445.223q.837.04 1.674.222c1.583.38 3.191.615 4.774.968 1.884.419 3.833.589 5.664 1.23 1.687.588 3.427 1.06 5.18 1.295q5.284.693 10.62.497c2.996-.092 6.004.235 9.013.157.13 0 .261.157.405.183.262.039.55.117.798.052.64-.17 1.308-.235 1.962-.366.85-.17 1.713-.17 2.564-.406 1.66-.444 3.322-.863 4.905-1.57 1.517-.666 3.165-.941 4.721-1.53 1.923-.72 4.03-.928 5.926-1.844 1.23-.589 2.629-.876 3.78-1.583 1.556-.968 3.335-1.32 4.957-2.119 1.033-.51 2.29-.667 3.349-1.177a58.86 58.86 0 0 1 8.005-3.047c.824-.262 1.648-.55 2.616-.51Zm110.303-63.843c-.431.21-.745.314-1.02.484-2.014 1.177-3.767 2.72-5.663 4.08q-2.512 1.845-4.97 3.755c-1.283.98-2.512 2.014-3.833 2.93-1.19.824-2.38 1.7-3.453 2.642-1.06.929-2.25 1.687-3.297 2.655-1.072.994-2.262 1.897-3.309 2.93q-1.988 1.962-3.806 4.107a53.628 53.628 0 0 0-4.317 5.638 87.636 87.636 0 0 0-3.636 6.095c-1.242 2.328-2.302 4.748-3.44 7.128-.523 1.1-.772 2.368-1.386 3.375-1.007 1.661-1.308 3.545-2.106 5.258-.929 2.002-1.491 4.173-2.158 6.292-.497 1.582-1.034 3.139-1.74 4.63-.392.85-.497 1.779-.968 2.603-1.086 1.884-1.7 3.976-2.655 5.938-1.112 2.276-1.884 4.748-3.06 6.998-.668 1.269-1.1 2.603-1.649 3.911q-.078.262-.222.484c-.955 1.099-.942 2.524-1.374 3.806.72-.601 1.007-1.478 1.4-2.223 1.282-2.42 3.047-4.513 4.473-6.828.236-.38.275-.89.693-1.125 1.282-.706 1.622-2.132 2.499-3.165 1.242-1.452 2.184-3.166 3.244-4.748.627-.942 1.412-1.74 2.04-2.669.876-1.308 1.949-2.472 2.982-3.649q1.19-1.413 2.485-2.76c1.02-1.046 1.806-2.354 2.852-3.375.89-.863 1.609-1.87 2.433-2.772q1.805-1.95 3.57-3.938c1.296-1.451 2.721-2.825 3.82-4.408.759-1.085 1.596-2.118 2.354-3.204.759-1.086 1.7-2.067 2.499-3.14.588-.784 1.164-1.647 1.962-2.288a11.772 11.772 0 0 0 2.603-2.865c.549-.863 1.255-1.635 1.74-2.55.34-.654.575-1.387 1.046-1.962 1.06-1.322 1.765-2.878 2.59-4.343 1.32-2.328 2.184-4.892 3.27-7.338.758-1.713 1.621-3.361 2.354-5.075.261-.602.47-1.243.85-1.779.955-1.334 1.217-2.969 1.975-4.42-.968.692-1.635 1.726-2.747 2.249 1.675-2.433 4.107-4.316 5.075-7.39Zm-.235 71.26c.523-.419.994-.942 1.583-1.243 1.582-.81 2.916-1.988 4.368-2.982q1.413-.968 2.813-2.001c1.726-1.27 3.61-2.329 5.44-3.453.367-.223.733-.877 1.243-.144.092.13.275.039.393-.066l1.439-1.347c.144-.144.222-.392.078-.576-.196-.248-.38 0-.523.105-.183.144-.327.327-.576.406-2.367.745-4.813 1.203-7.167 2.027-2.29.785-4.54 1.648-6.697 2.708q-2.747 1.32-5.442 2.76c-1.347.719-2.773 1.334-4.12 2.053-2.276 1.216-4.604 2.328-6.92 3.48q-2.668 1.307-5.323 2.694a133.416 133.416 0 0 1-4.525 2.289c-1.936.928-3.82 1.936-5.769 2.851a98.1 98.1 0 0 0-7.795 4.12l-4.278 2.46a56.244 56.244 0 0 0-10.96 8.161c-2.054 1.975-4.16 3.911-5.703 6.292-1.295 1.975-2.146 4.238-3.218 6.357-.589 1.164-1.151 2.354-1.858 3.492 1.02-.432 1.95-.98 2.93-1.426q2.734-1.203 5.494-2.328c.693-.288 1.452-.445 2.08-.824 1.556-.942 3.23-1.622 4.84-2.446a92.868 92.868 0 0 1 4.904-2.302c2.054-.902 4.016-2.014 6.004-3.048.85-.444 1.792-.732 2.55-1.268 1.27-.89 2.682-1.478 4.016-2.21 2.08-1.139 4.356-1.937 6.396-3.14 1.23-.733 2.512-1.387 3.689-2.224a70.632 70.632 0 0 1 9.47-6.043c1.373-.745 2.838-1.347 4.172-2.158l4.71-2.825a37.932 37.932 0 0 0 6.029-4.774c1.465-1.413 2.786-2.97 4.199-4.434q1.504-1.544 2.956-3.127c.98-1.059 1.805-2.275 2.89-3.256q.38-.367.563-.85c-.419-.17-.654.065-.811.3-.21.327-.563.523-.863.602-1.544.38-2.76 1.32-4.029 2.184-.458.314-.955.576-1.4.942q-1.451 1.138-3.021 2.093c-.798.51-1.7.85-2.472 1.4q-.811.575-1.805.719Zm21.543-52.072 6.16-.667c2.159-.235 4.264-.706 6.397-1.072 2.838-.484 5.715-.733 8.528-1.452a130.8 130.8 0 0 0 11.863-3.584 53.628 53.628 0 0 0 14.153-7.691 24.852 24.852 0 0 0 5.127-4.735l.458-.523c.824-1.047 1.648-2.093 2.341-3.231.471-.785.85-1.622 1.334-2.407.105-.17.327-.366.21-.562-.157-.262-.445-.118-.641-.013-1.034.51-2.145.745-3.179 1.308-1.543.824-3.335 1.085-4.983 1.792-1.897.81-3.95 1.23-5.912 1.922q-2.329.824-4.748 1.243c-.85.144-1.505.745-2.342.772-1.203.052-2.341.431-3.492.706a83.712 83.712 0 0 1-9.561 1.713c-2.813.327-5.638.458-8.45.668-1.897.143-3.793.156-5.69.261q-3.27.17-6.461.876c-1.112.249-2.133.733-3.153 1.217a24.852 24.852 0 0 0-4.84 2.904c-.248.196-.418.457-.706.628a14.388 14.388 0 0 0-3.505 3.086c-1.125 1.413-2.407 2.721-3.322 4.356q-1.06 1.923-2.276 3.793c-.144.21-.445.432-.21.707.197.222.537.104.772.026 1.413-.497 2.878-.249 4.303-.327 1.897-.092 3.754-.406 5.586-.798 1.83-.406 3.636-.903 6.239-.903Zm-81.266 63.517c.85-1.518 1.164-3.179 1.504-4.774.654-3.114.89-6.305 1.779-9.379.458-1.609.732-3.283 1.49-4.787.89-1.779 1.479-3.663 2.224-5.494 1.165-2.89 1.322-6.043 1.78-9.103a18.312 18.312 0 0 0 0-6.423 35.316 35.316 0 0 1-.602-5.206c-.21-3.165-.066-6.33-.04-9.496l.053-12.818c0-1.491.117-2.982.026-4.473-.079-1.308-.38-2.603-.589-3.898-.052-.34.092-.85-.3-.929-.262-.052-.602.301-.903.497a1.308 1.308 0 0 0-.3.34c-.76 1.269-1.754 2.38-2.277 3.78-.17.445-.3.942-.588 1.295-1.034 1.321-1.256 3.048-2.224 4.408-.693.968-.837 2.237-1.36 3.283-1.151 2.29-1.387 4.84-2.302 7.194-.864 2.21-1.073 4.618-1.635 6.92-.419 1.7-.51 3.492-.641 5.245-.197 2.563-.288 5.127-.419 7.69-.105 2.12-.418 4.226-.432 6.358 0 3.034 1.1 5.925 1.008 8.973-.053 1.752.261 3.518.222 5.27-.052 2.721.235 5.377.759 8.032.117.588.144 1.203.353 1.753.81 2.105 1.164 4.33 1.713 6.5l.654 2.603.223-.026c.3-2.537.758-5.049.85-7.612v4.264ZM54.672 84.696a15.696 15.696 0 0 0 4.84.889c.64.013 1.268.183 1.883.288 2.223.405 4.447.798 6.71.994 1.818.157 3.649.3 5.415.72 1.347.313 2.655.588 4.028.601 1.557.026 3.113.026 4.644.17 2.119.21 4.212.536 6.265 1.256 1.95.667 4.042.941 6.095 1.255 1.44.21 2.891.34 4.343.55.942.13 1.897.196 2.825.405 1.7.406 3.375.955 5.036 1.478 2.29.72 4.683 1.06 6.906 2.106 1.87.876 3.571 1.962 5.245 3.14.759.536 1.492 1.124 2.63 1.543-.34-.51-.34-.864-.537-1.217q-1.06-1.896-2.158-3.754a7.456 7.456 0 0 0-3.126-3.021 5.232 5.232 0 0 1-.994-.602A17.004 17.004 0 0 0 110.196 89c-1.543-.589-3.178-.876-4.696-1.609-2.014-.968-4.25-1.321-6.409-1.831-2.302-.55-4.709-.301-7.05-.563-2.864-.327-5.742-.51-8.593-1.007-2.002-.353-4.016-.523-6.004-.955-1.988-.431-3.859-1.294-5.925-1.425-5.939-.38-11.85-1.164-17.815-.563q-2.8.314-5.586.707c-.196.026-.457.078-.523.287-.091.262.131.419.288.602.353.432.942.484 1.295.942 1.033 1.308 2.537 2.066 3.885 2.904 1.74 1.072 3.505 2.197 5.598 2.655 1.151.248 2.328.68 3.335 1.295 2.302 1.4 4.604 2.747 7.299 3.283.667.13 1.321.38 1.975.575 1.779.537 3.44 1.452 5.337 1.661 1.177.131 2.367.354 3.466.785 1.596.615 3.165 1.269 4.879 1.334 3.047.118 6.095.223 9.13.157 2.262-.052 4.5.157 6.723.38q2.315.261 4.604.248c1.439 0 2.877-.144 4.316-.314 1.478-.17 2.996-.039 4.487-.104 1.111-.053 2.236.13 3.4-.131-.837-.85-1.922-1.151-2.838-1.7-1.7-1.008-3.675-1.479-5.559-2.067-1.53-.484-3.152-.667-4.696-1.138-.654-.21-1.164-.667-1.857-.811a28.776 28.776 0 0 0-4.264-.523q-1.727-.118-3.453-.288-1.622-.144-3.166-.628c-1.451-.47-2.969-.602-4.434-.968-2.119-.536-4.211-1.23-6.487-1.138-1.897.092-3.82-.183-5.73-.353-2.34-.222-4.643-.81-6.958-1.177-4.212-.654-8.423-1.308-12.557-2.328-.261-.066-.536-.066-.89-.484Zm.457 282.358c.21.34.563.157.824.287 1.832.877 3.82 1.374 5.625 2.342.994.523 2.184.706 3.152 1.281 1.674.981 3.584 1.36 5.337 2.172 1.556.732 3.27 1.138 4.852 1.883 1.766.837 3.362 1.91 4.866 3.087.693.55 1.478 1.164 1.923 1.884.693 1.098 1.792 1.765 2.511 2.825.262.392.89.523 1.19.902.76.942 1.858 1.413 2.773 2.133.668.536 1.53.941 2.172 1.517 1.308 1.164 2.93 1.57 4.5 2.001 1.634.458 3.387.654 4.878 1.4 1.491.732 2.982 1.504 4.382 2.485 1.269.902 2.524 1.857 3.859 2.694.222.144.497.183.667.432.968 1.426 1.935 2.838 3.701 3.4.236.08.406.315.589.51.81.89 1.962 1.217 2.982 1.78-1.138-2.72-3.165-4.748-5.062-6.867a11.772 11.772 0 0 1 2.695 2.184c-.445-1.033-.524-2.132-1.047-3.126-.34-.641-.798-1.23-1.02-1.949a18.312 18.312 0 0 0-2.956-5.35c-1.57-2.106-3.414-4.002-4.853-6.2-.484-.732-1.112-1.295-1.609-1.962-.51-.693-1.281-1.164-1.608-1.988a7.848 7.848 0 0 0-2.721-3.113 37.932 37.932 0 0 1-2.773-2.433 16.35 16.35 0 0 0-8.62-4.434 49.704 49.704 0 0 0-7.076-.85c-2.171-.105-4.251-.785-6.422-.916-2.499-.157-4.97-.588-7.482-.549-3.61.052-6.946 1.046-10.203 2.511Zm82.849-245.59c1.203-.275 1.87-1.23 2.825-1.53 1.596-.511 2.943-1.544 4.513-2.068 1.295-.431 2.184-1.53 3.427-2.014 1.4-.536 2.511-1.57 3.728-2.38q1.883-1.27 3.662-2.747c1.217-1.02 2.59-1.858 3.806-2.878 1.034-.863 1.936-1.87 2.93-2.799.864-.81 1.714-1.674 2.394-2.59.732-.994 1.583-1.896 2.315-2.89.942-1.322 1.988-2.603 2.89-3.938.943-1.4 2.094-2.642 2.891-4.133q.223-.431.524-.798c.771-.89 1.373-1.949 1.935-2.943l2.708-4.787c.21-.38.21-.89.602-1.164.222-.157.523-.392.248-.615-.3-.248-.47.092-.667.353-1.046 1.348-2.093 2.695-3.453 3.78-.85.68-1.7 1.413-2.433 2.211a32.7 32.7 0 0 1-5.166 4.5q-1.936 1.386-3.82 2.838-1.91 1.491-3.623 3.257c.327-1.282 1.373-1.95 2.25-2.773.89-.85 2.027-1.36 2.982-2.093a65.4 65.4 0 0 0 4.539-3.832q3.1-2.839 6.134-5.756c1.87-1.818 3.349-3.95 5.206-5.755.249-.248.523-.628.471-1.02-1.517.654-2.851 1.57-4.225 2.42-.445.274-.968.431-1.386.785-1.321 1.111-2.904 1.791-4.33 2.733-1.425.942-2.89 1.805-4.212 2.826-.98.758-2.08 1.32-3.034 2.145-1.23 1.072-2.708 1.857-4.068 2.786-1.635 1.111-3.296 2.223-4.813 3.505-1.047.876-2.093 1.74-3.074 2.695q-1.295 1.268-2.55 2.576c-1.413 1.44-2.643 3.022-3.886 4.565a32.7 32.7 0 0 0-3.178 4.683c-.903 1.609-1.426 3.348-2.184 4.996-.602 1.295-.798 2.773-1.4 4.055a30.11 30.11 0 0 0-1.478 3.793m10.686-108.511c-.091.654-.667.994-.85 1.556-.772 2.25-2.053 4.251-2.995 6.423a36.624 36.624 0 0 0-2.184 8.292c-.249 1.452.156 2.878.327 4.317.3 2.563 1.164 4.93 2.053 7.325 1.007 2.668 2.812 4.84 4.264 7.233 1.151 1.883 2.014 3.885 3.074 5.807.929 1.7 1.57 3.571 2.08 5.468q.274 1.125.497 2.276c.51-1.518.628-3.087.876-4.63.406-2.512.275-5.063.249-7.613-.04-3.218.274-6.423-.707-9.588-.915-2.969-.89-6.121-1.752-9.117-.563-1.935-.942-3.884-1.74-5.768-1.02-2.42-1.478-5.062-2.067-7.639-.327-1.438-.614-2.903-1.125-4.316Zm84.497 32.477c-1.426.131-2.655.798-4.015.942-.654.066-1.321.066-1.95.236-2.38.68-4.839.89-7.259 1.32-4.525.812-9.143.799-13.734 1.073-3.204.183-6.422.262-9.613.733-2.97.444-5.913 1.046-8.673 2.302-.627.288-1.334.445-1.87.837-1.373.994-2.956 1.622-4.382 2.511a68.016 68.016 0 0 0-6.54 4.696c.537.157.942-.052 1.347-.183.68-.21 1.374-.667 2.041-.641 1.87.065 3.61-.68 5.454-.759 1.845-.078 3.663-.536 5.507-.614 4.029-.157 8.057-.38 12.099-.288 3.375.078 6.645-.641 9.888-1.504a98.1 98.1 0 0 0 6.985-2.185c1.805-.614 3.48-1.53 5.245-2.223 1.334-.524 2.72-1.034 3.885-1.95q1.635-1.255 3.322-2.471c.759-.563 1.805-.798 2.263-1.832M48.105 123.752c.066.301.053.406.105.458 1.413 1.374 2.878 2.695 4.225 4.12 1.06 1.125 2.158 2.211 3.191 3.362.968 1.073 2.015 2.106 2.904 3.218a19.62 19.62 0 0 0 4.487 4.041c2.145 1.426 3.884 3.27 5.794 4.932 1.321 1.15 2.603 2.302 4.081 3.257q1.648 1.098 3.126 2.406 1.387 1.204 2.852 2.224 1.595 1.138 3.021 2.459c1.321 1.216 2.865 2.132 4.199 3.322.405.353 1.033.38 1.32.877.629 1.072 1.767 1.608 2.604 2.485.863.902 1.936 1.7 2.877 2.577.798.732 1.74 1.19 2.577 1.83 1.112.85 2.328 1.518 3.27 2.617.615.72 1.36 1.347 1.818 2.263.236-.275.17-.458.118-.628a18.312 18.312 0 0 0-2.668-5.01 65.4 65.4 0 0 0-3.977-4.722q-1.543-1.7-2.825-3.597c-.353-.51-.628-1.112-1.06-1.504-1.124-1.033-1.948-2.341-3.178-3.31-.837-.653-1.583-1.543-2.433-2.131-1.334-.942-2.367-2.237-3.806-3.035l-.249-.261c-.771-1.086-1.883-1.858-2.786-2.826a31.392 31.392 0 0 0-2.576-2.524 51.012 51.012 0 0 0-3.113-2.472c-2.002-1.478-4.147-2.747-6.187-4.173-1.44-1.007-2.917-1.949-4.304-3.06-1.046-.85-2.315-1.518-3.531-2.172a170.04 170.04 0 0 0-6.88-3.48c-.968-.457-1.988-.81-2.996-1.556Zm67.245 134.96c.157-.746-.066-1.426-.079-2.106-.013-1.177-.523-1.753-1.635-2.21-.81-.327-.89 0-.85.667.118 2.563.17 5.127.3 7.69.092 1.845.275 3.69.406 5.533.013.249.053.537.288.615.262.079.353-.209.392-.392q.589-2.29 1.086-4.591c.366-1.74.275-3.493.079-5.193Zm89.86-52.726c-.943-.078-3.166 1.426-3.48 2.159z"></path><path d="M101.868 240.347c-.758-.602-1.726-.824-2.459-1.44.863.42 1.857.616 2.46 1.44M99.616 306.675c.432 3.362 1.884 6.423 2.76 9.863-.89-1.034-3.034-7.953-2.76-9.863M150.591 159.29a7.194 7.194 0 0 1 3.937-1.844c-1.465.3-2.485 1.53-3.937 1.844M207.018 140.945c0-.785.628-1.047 1.007-1.478.118-.131.327-.197.484-.066.21.17.079.432-.039.55-.405.392-.732.915-1.439.994ZM197.274 190.839c-.981 2.171-2.813 3.65-4.421 5.297a24.852 24.852 0 0 1 4.42-5.297m-4.695 5.951c-1.02.89-1.543 2.158-2.498 3.074.732-1.112 1.23-2.394 2.498-3.074M166.408 275.286c-.13.38-.536.393-.798.55-.98.614-2.014 1.19-2.93 1.87-1.504 1.112-3.152 2.001-4.722 2.982l-4.774 2.93c-1.36.837-2.864 1.44-4.107 2.499-.706.601-1.805.64-2.289 1.595-.065.118-.314.079-.392-.052-.105-.17.091-.262.196-.34 1.439-1.06 2.851-2.132 4.368-3.074 1.832-1.138 3.833-1.975 5.625-3.139 1.4-.916 2.825-1.792 4.16-2.8.771-.588 1.791-.954 2.59-1.49q1.255-.824 2.589-1.491c.13-.066.275-.131.497-.027ZM195.01 257.826c1.413-.864 2.735-1.845 4.291-2.42.55-.21 1.046-.563 1.57-.824.183-.092.431-.17.51.13q.026.301-.288.38c-1.766.536-3.296 1.556-4.97 2.276zM172.644 271.333c-1.674 1.007-3.06 2.485-5.036 3.009 1.583-1.152 3.153-2.342 5.036-3.009m4.63-3.048c.772-1.124 1.962-1.543 3.153-1.975-1.073.628-2.015 1.452-3.153 1.975m-33.471 21.57q.327-1.152 1.504-1.217zM149.025 195.351c-.249 3.65-1.57 6.88-1.622 10.307-.144-2.04.667-8.75 1.622-10.307M149.05 194.488c-.301-1.53.51-2.943.366-4.526.523.707.262 3.349-.366 4.526M54.22 84.511c-.157.105-.183.144-.21.144-.536-.065-1.033-.235-1.36-.693-.013-.026.079-.183.118-.183.588-.013.915.445 1.452.732M138.885 119.867l8.842-9.627.327.3c-2.917 3.245-5.703 6.62-8.908 9.601zm10.843-11.053a18.312 18.312 0 0 1 3.858-3.82 14.388 14.388 0 0 1-3.858 3.82M159.173 99.266c-.654.89-1.19 1.726-2.12 2.25-.496.274-.601 1.007-1.111 1.36-.17.118-.353.353-.523.183-.249-.236.065-.38.209-.55.824-1.02 1.805-1.883 2.747-2.772.196-.184.353-.419.798-.458Z"></path></g><path fill="#4962bf" d="M141 548.423q-4.47 0-7.21-2.23-2.75-2.24-3.97-5.77-1.23-3.53-1.23-7.37 0-4.98 1.51-10.02 1.51-5.04 4.13-9.6 2.61-4.57 5.95-8.13 3.34-3.56 7.02-5.61 3.69-2.04 7.28-2.04 2.58 0 4.19 1.22 1.61 1.23 1.61 4.19 0 1.83-.63 4.13t-1.7 4.41q-1.08 2.11-2.37 3.5-1.29 1.38-2.61 1.38-.51 0-1.04-.31-.54-.32-.91-1.14.94-1.07 2.11-2.67 1.16-1.61 2.23-3.41 1.07-1.79 1.74-3.52.66-1.74.66-3.06 0-1.26-.73-2.05-.72-.78-2.36-.78-2.71 0-5.64 2.2-2.93 2.21-5.67 5.89-2.74 3.69-4.94 8.22-2.21 4.54-3.5 9.26-1.29 4.73-1.29 9.01 0 3.09.88 5.89.88 2.81 2.87 4.54 1.98 1.73 5.13 1.73 3.34 0 6.65-1.89 3.3-1.89 6.08-4.98 2.77-3.08 4.41-6.67l.88.63q-2.08 4.09-5.04 7.53-2.96 3.43-6.62 5.48-3.65 2.04-7.87 2.04" paint-order="stroke"></path><rect width="31.94" height="50.77" x="-15.97" y="-25.39" fill="none" rx="0" ry="0" transform="translate(145.06 523.54)"></rect><path fill="#4962bf" d="M184.28 548.423q-3.59 0-6.3-1.92t-4.25-5.45q-1.55-3.53-1.55-8.25 0-4.85 1.55-9.83 1.54-4.98 4.19-9.51 2.64-4.54 5.98-8.1 3.34-3.56 7.06-5.64 3.71-2.07 7.31-2.07 1.19 0 2.14.18.94.19 1.64.57h-.76q-3.28 0-6.62 2.18-3.33 2.17-6.36 5.85-3.02 3.69-5.42 8.26-2.39 4.56-3.78 9.48-1.38 4.91-1.38 9.51 0 3.34.85 6.24.85 2.9 2.74 4.63 1.89 1.73 4.85 1.73 3.53 0 6.61-2.17 3.09-2.18 5.58-5.89 2.49-3.72 4.28-8.29 1.8-4.56 2.78-9.45.97-4.88.97-9.35 0-1.77-.25-3.78-.25-2.02-.88-3.47-.63-1.45-1.7-1.45-1.14 0-2.46 1.42t-2.55 3.56q-1.23 2.14-2.17 4.44-.95 2.3-1.33 4.07-1.57-.38-2.3-1.23-.72-.85-.72-1.86 0-1.7 1.16-3.75 1.17-2.05 2.97-3.97 1.79-1.92 3.74-3.15 1.96-1.23 3.53-1.23 1.64 0 2.68 1.2 1.04 1.2 1.64 3.06.6 1.85.82 3.96.22 2.11.22 3.94 0 6.87-1.55 12.51-1.54 5.64-4.15 9.92-2.62 4.28-5.83 7.21-3.22 2.93-6.59 4.41-3.37 1.48-6.39 1.48" paint-order="stroke"></path><rect width="36.61" height="50.77" x="-18.3" y="-25.39" fill="none" rx="0" ry="0" transform="translate(190.99 523.54)"></rect><path fill="#4962bf" d="M222.33 548.423q.76-3.02 1.89-6.74 1.14-3.71 2.74-8.85 1.61-5.13 3.75-12.19 2.14-7.06 4.98-16.69.12-.32.28-1.11.16-.78.16-1.48 0-.63-.22-1.04-.22-.41-.73-.41-1.51 0-2.86 1.17-1.36 1.16-2.33 2.93-.98 1.76-1.55 3.68-.56 1.93-.56 3.44 0 1.26.31 2.2-2.08 0-2.93-1.04-.85-1.04-.85-2.55 0-2.14 1.26-4.28t3.21-3.94q1.96-1.8 4.13-2.87t4-1.07q1.89 0 3.12 1.61 1.23 1.61 1.98 4.41.76 2.8 1.26 6.33.51 3.53.95 7.31.38 3.15.75 6.27.38 3.12.76 5.92t.69 5.13q.32 2.33.57 3.85.44-2.96 1.29-6.71.85-3.75 1.89-7.81 1.04-4.07 2.18-7.94 1.13-3.88 2.11-7.12.97-3.25 1.7-5.42.72-2.17.97-2.74.32-.82 1.45-1.95 1.14-1.14 2.52-1.14-1.07 2.9-2.42 7.09-1.36 4.19-2.74 9.07-1.39 4.88-2.71 9.96-1.33 5.07-2.36 9.79-1.04 4.73-1.64 8.6-.6 3.88-.66 6.33-1.96 0-3.19-1.13-1.22-1.13-1.73-3.97-.31-1.64-.79-4.5-.47-2.87-1-6.4-.54-3.53-1.11-7.34-.56-3.81-1.1-7.46-.53-3.66-.98-6.71-.44-3.06-.75-5.07-3.03 10.89-5.17 18.42-2.14 7.53-3.62 12.29-1.48 4.75-2.61 7.34-1.14 2.58-2.15 3.56-1 .97-2.14.97" paint-order="stroke"></path><rect width="38.87" height="50.84" x="-19.43" y="-25.42" fill="none" rx="0" ry="0" transform="translate(242.26 523.5)"></rect><path fill="#4962bf" d="M282.06 548.423q-3.41 0-6.43-1.22-3.02-1.23-4.88-3.75-1.86-2.52-1.86-6.3 0-3.28 1.29-5.11 1.29-1.82 3.18-2.58 1.89-.76 3.59-.76-1.7 1.83-2.58 4.04-.88 2.2-.88 4.41 0 2.33 1.04 4.34 1.04 2.02 3.18 3.25t5.42 1.23q2.83 0 5.54-1.04t4.44-3.09q1.73-2.05 1.73-5.07 0-2.71-1.38-4.66-1.39-1.96-3.56-3.47-2.17-1.51-4.63-2.9-2.46-1.38-4.63-2.93-2.18-1.54-3.56-3.56-1.39-2.01-1.39-4.85 0-2.64 1.26-5.54t3.63-5.48q2.36-2.58 5.67-4.19 3.3-1.61 7.4-1.61 3.71 0 5.16 1.8 1.45 1.79 1.45 4.5 0 2.27-.78 4.89-.79 2.61-1.93 4.97-1.13 2.36-2.14 4-1.13-.25-1.6-.97-.48-.73-.48-1.74 0-1.32.57-3.02t1.29-3.53q.73-1.83 1.29-3.56.57-1.73.57-3.12 0-1.26-.76-1.98-.75-.73-2.77-.73-2.96 0-5.48 1.39-2.52 1.39-4.41 3.56-1.89 2.17-2.93 4.57-1.04 2.39-1.04 4.34 0 2.34 1.36 4.01 1.35 1.66 3.49 3.02 2.14 1.35 4.57 2.71 2.43 1.35 4.57 2.99 2.14 1.64 3.49 3.88 1.36 2.23 1.36 5.44 0 3.28-1.45 5.77-1.45 2.49-3.87 4.19-2.43 1.7-5.33 2.58-2.9.88-5.79.88" paint-order="stroke"></path><rect width="31.37" height="50.84" x="-15.69" y="-25.42" fill="none" rx="0" ry="0" transform="translate(285.07 523.5)"></rect><path fill="#4962bf" d="M323.19 548.423q-2.83 0-3.9-1.26-1.07-1.26-1.07-3.21 0-1.83.75-4.35.76-2.52 1.58-4.85 1.07-3.08 2.58-7.24t3.25-8.7q1.73-4.53 3.52-8.94 1.8-4.41 3.5-8-4.35.06-7.28.19-2.93.12-5.26.34-2.33.22-5.1.73.19-2.15 2.21-3.34 2.01-1.2 5.41-1.7 3.41-.51 7.75-.51 4.35 0 7.78.35 3.44.35 6.46.66 3.02.32 6.05.38-2.14 1.95-4.92 2.46-2.77.5-5.85.5-.7 0-1.45-.03-.76-.03-1.52-.03h-1.51q-2.01 5.04-4.63 12.72-2.61 7.69-5.26 17.33-.88 3.34-1.6 5.98-.73 2.65-1.14 4.85-.41 2.21-.41 4.29v.69q0 .38.06.69" paint-order="stroke"></path><rect width="35.66" height="50.84" x="-17.83" y="-25.42" fill="none" rx="0" ry="0" transform="translate(334.09 523.5)"></rect><path fill="#4962bf" d="M350.22 548.423q-1.38-.82-1.76-1.73-.38-.91-.38-1.54 0-1.77 1.29-4.79t3.47-6.9q2.17-3.87 4.82-8.03-2.34-.19-3.97-.25-1.64-.07-2.84-.07h-2.2q.69-1.82 2.42-2.55 1.73-.72 4.13-.72 1.07 0 2.2.12 1.14.13 2.33.32 3.22-4.85 6.59-9.42 3.37-4.57 6.3-8.13 2.93-3.56 4.88-5.38 1.83-1.77 3.02-1.77.7 0 1.55.54.85.53 1.79 1.48-.63.5-1.6 2.68-.98 2.17-2.08 5.45-1.1 3.27-2.18 7.18-1.07 3.9-1.98 7.97-.91 4.06-1.45 7.71-.53 3.66-.53 6.43 0 2.39.53 3.72.54 1.32 1.8 1.32 1.63 0 3.71-2.27t4.54-7.05l.63.63q-1.89 5.04-4.82 8.25-2.93 3.21-6.08 3.21-2.58 0-3.75-2.3-1.16-2.3-1.16-6.14 0-2.02.28-4.41t.79-4.98q-2.77-.44-5.07-.72-2.3-.28-4.26-.54-2.96 5.48-5.76 11.28-2.8 5.8-5.2 11.4m20.73-23.62q.94-4.16 2.2-8.41 1.26-4.25 2.68-8.1 1.42-3.84 2.68-6.74-1.95 1.2-4.51 4.25-2.55 3.06-5.38 7.44-2.84 4.38-5.8 9.61 2.14.44 4.25.97 2.11.54 3.88.98" paint-order="stroke"></path><rect width="37.17" height="50.84" x="-18.59" y="-25.42" fill="none" rx="0" ry="0" transform="translate(367.17 523.5)"></rect><path fill="#4962bf" d="M398.61 548.423q.75-3.02 1.89-6.74 1.13-3.71 2.74-8.85 1.6-5.13 3.74-12.19 2.15-7.06 4.98-16.69.13-.32.29-1.11.15-.78.15-1.48 0-.63-.22-1.04-.22-.41-.72-.41-1.51 0-2.87 1.17-1.35 1.16-2.33 2.93-.98 1.76-1.54 3.68-.57 1.93-.57 3.44 0 1.26.31 2.2-2.07 0-2.92-1.04-.86-1.04-.86-2.55 0-2.14 1.26-4.28t3.22-3.94q1.95-1.8 4.12-2.87 2.18-1.07 4-1.07 1.89 0 3.12 1.61 1.23 1.61 1.99 4.41.75 2.8 1.26 6.33.5 3.53.94 7.31.38 3.15.76 6.27.38 3.12.75 5.92.38 2.8.7 5.13.31 2.33.56 3.85.45-2.96 1.3-6.71.85-3.75 1.89-7.81 1.04-4.07 2.17-7.94 1.13-3.88 2.11-7.12.98-3.25 1.7-5.42.73-2.17.98-2.74.31-.82 1.45-1.95 1.13-1.14 2.52-1.14-1.07 2.9-2.43 7.09-1.35 4.19-2.74 9.07-1.39 4.88-2.71 9.96-1.32 5.07-2.36 9.79-1.04 4.73-1.64 8.6-.6 3.88-.66 6.33-1.95 0-3.18-1.13-1.23-1.13-1.73-3.97-.32-1.64-.79-4.5-.47-2.87-1.01-6.4-.54-3.53-1.1-7.34-.57-3.81-1.1-7.46-.54-3.66-.98-6.71-.44-3.06-.76-5.07-3.02 10.89-5.16 18.42-2.15 7.53-3.63 12.29-1.48 4.75-2.61 7.34-1.13 2.58-2.14 3.56-1.01.97-2.14.97" paint-order="stroke"></path><rect width="38.87" height="50.84" x="-19.43" y="-25.42" fill="none" rx="0" ry="0" transform="translate(418.55 523.5)"></rect><path fill="#4962bf" d="M459.15 548.423q-4.47 0-7.21-2.23-2.75-2.24-3.97-5.77-1.23-3.53-1.23-7.37 0-4.98 1.51-10.02 1.51-5.04 4.13-9.6 2.61-4.57 5.95-8.13 3.34-3.56 7.02-5.61 3.69-2.04 7.28-2.04 2.58 0 4.19 1.22 1.61 1.23 1.61 4.19 0 1.83-.63 4.13t-1.7 4.41q-1.08 2.11-2.37 3.5-1.29 1.38-2.61 1.38-.51 0-1.04-.31-.54-.32-.91-1.14.94-1.07 2.11-2.67 1.16-1.61 2.23-3.41 1.07-1.79 1.74-3.52.66-1.74.66-3.06 0-1.26-.73-2.05-.72-.78-2.36-.78-2.71 0-5.64 2.2-2.93 2.21-5.67 5.89-2.74 3.69-4.94 8.22-2.21 4.54-3.5 9.26-1.29 4.73-1.29 9.01 0 3.09.88 5.89.88 2.81 2.87 4.54 1.98 1.73 5.13 1.73 3.34 0 6.65-1.89 3.3-1.89 6.08-4.98 2.77-3.08 4.41-6.67l.88.63q-2.08 4.09-5.04 7.53-2.96 3.43-6.62 5.48-3.65 2.04-7.87 2.04" paint-order="stroke"></path><rect width="31.94" height="50.77" x="-15.97" y="-25.39" fill="none" rx="0" ry="0" transform="translate(463.21 523.54)"></rect><path fill="#4962bf" d="M500.98 548.423q-3.78 0-6.55-1.57-2.77-1.58-4.25-4.19-1.48-2.62-1.48-5.7 0-2.9 1.26-5.67t3.49-5.07q2.24-2.3 5.2-3.78t6.36-1.8q-2.45-2.02-3.62-4.66-1.17-2.65-1.17-5.29 0-3.34 1.67-6.33 1.67-3 4.63-4.86 2.97-1.85 6.68-1.85 3.53 0 5.36 1.76 1.82 1.76 1.82 5.04 0 2.33-.81 4.54-.82 2.2-1.99 3.59-1.16 1.38-2.24 1.38-.69 0-1.32-.6-.63-.59-1.01-1.41 2.21-1.96 3.75-4.13 1.55-2.17 1.55-4.63 0-1.95-1.14-3.02-1.13-1.08-3.34-1.08-2.9 0-4.91 1.74-2.02 1.73-3.06 4.6-1.04 2.86-1.04 6.33 0 2.27.7 4.91.69 2.65 2.96 4.6-4.22.69-7.34 3.21t-4.85 5.93q-1.74 3.4-1.74 6.74 0 2.08.79 4.19.79 2.11 2.55 3.52 1.77 1.42 4.73 1.42 3.34 0 6.65-1.89 3.3-1.89 6.07-4.98 2.78-3.08 4.41-6.67l.89.63q-2.21 4.28-5.17 7.68-2.96 3.4-6.61 5.39-3.66 1.98-7.88 1.98" paint-order="stroke"></path><rect width="31.94" height="50.77" x="-15.97" y="-25.39" fill="none" rx="0" ry="0" transform="translate(505.17 523.54)"></rect></svg></svg>